<?xml version="1.0" encoding="UTF-8" standalone="no"?>
<!-- Created with Inkscape (http://www.inkscape.org/) -->

<svg
   xmlns:dc="http://purl.org/dc/elements/1.1/"
   xmlns:cc="http://creativecommons.org/ns#"
   xmlns:rdf="http://www.w3.org/1999/02/22-rdf-syntax-ns#"
   xmlns:svg="http://www.w3.org/2000/svg"
   xmlns="http://www.w3.org/2000/svg"
   xmlns:sodipodi="http://sodipodi.sourceforge.net/DTD/sodipodi-0.dtd"
   xmlns:inkscape="http://www.inkscape.org/namespaces/inkscape"
   width="118.5465mm"
   height="83.895149mm"
   viewBox="0 0 106.69185 75.505634"
   version="1.1"
   id="svg8"
   inkscape:version="0.92.2 (5c3e80d, 2017-08-06)"
   sodipodi:docname="dibujo.svg">
  <defs
     id="defs2" />
  <sodipodi:namedview
     id="base"
     pagecolor="#ffffff"
     bordercolor="#666666"
     borderopacity="1.0"
     inkscape:pageopacity="0.0"
     inkscape:pageshadow="2"
     inkscape:zoom="0.96102398"
     inkscape:cx="274.57114"
     inkscape:cy="20.806935"
     inkscape:document-units="mm"
     inkscape:current-layer="layer1"
     showgrid="false"
     showguides="false"
     inkscape:lockguides="true"
     inkscape:snap-bbox="true"
     inkscape:measure-start="0,0"
     inkscape:measure-end="0,0"
     inkscape:window-width="1366"
     inkscape:window-height="706"
     inkscape:window-x="-8"
     inkscape:window-y="-8"
     inkscape:window-maximized="1"
     fit-margin-top="0"
     fit-margin-left="0"
     fit-margin-right="0"
     fit-margin-bottom="0"
     scale-x="0.9" />
  <metadata
     id="metadata5">
    <rdf:RDF>
      <cc:Work
         rdf:about="">
        <dc:format>image/svg+xml</dc:format>
        <dc:type
           rdf:resource="http://purl.org/dc/dcmitype/StillImage" />
        <dc:title></dc:title>
      </cc:Work>
    </rdf:RDF>
  </metadata>
  <g
     inkscape:label="Capa 1"
     inkscape:groupmode="layer"
     id="layer1">
    <path
       style="fill:#000000;stroke-width:0.57833171"
       d="M 17.570645,51.895636 C 10.333044,48.175989 9.1378786,39.348568 15.11753,33.777059 c 5.232166,-4.875045 13.935272,-4.144882 18.399526,1.543663 2.967105,3.780811 2.810763,10.058318 -0.342759,13.762508 -3.783153,4.44377 -10.184414,5.597535 -15.603652,2.812406 z"
       id="path44"
       inkscape:connector-curvature="0" />
    <ellipse
       style="fill:#ececec;stroke-width:0.377078"
       id="path46"
       cx="23.288109"
       cy="42.012192"
       rx="9.5743732"
       ry="9.213603" />
    <path
       style="fill:none;stroke:#000000;stroke-width:0.20241605px;stroke-linecap:butt;stroke-linejoin:miter;stroke-opacity:1"
       d="m 17.553071,34.39472 c 7.314492,7.787962 3.10785,11.224733 -0.02859,15.065688"
       id="path48"
       inkscape:connector-curvature="0"
       sodipodi:nodetypes="cc" />
    <path
       style="fill:none;stroke:#000000;stroke-width:0.17579874px;stroke-linecap:butt;stroke-linejoin:miter;stroke-opacity:1"
       d="m 29.025997,34.148927 c -5.475981,7.846711 -2.326687,11.309408 0.0214,15.179338"
       id="path48-1"
       inkscape:connector-curvature="0"
       sodipodi:nodetypes="cc" />
    <ellipse
       style="fill:#000000;stroke-width:0.20241605"
       id="path65"
       cx="23.842236"
       cy="41.868607"
       rx="1.28642"
       ry="1.990086" />
    <ellipse
       style="fill:#ffffff;stroke-width:0.58578378"
       id="path67"
       cx="23.885118"
       cy="41.839111"
       rx="0.70038426"
       ry="0.98767221" />
    <path
       style="fill:none;stroke:#000000;stroke-width:0.20241605px;stroke-linecap:butt;stroke-linejoin:miter;stroke-opacity:1"
       d="m 18.181988,33.996704 c 3.170407,2.951939 6.380017,4.596595 9.776791,0"
       id="path69"
       inkscape:connector-curvature="0"
       sodipodi:nodetypes="cc" />
    <path
       style="fill:none;stroke:#000000;stroke-width:0.09956212px;stroke-linecap:butt;stroke-linejoin:miter;stroke-opacity:1"
       d="m 18.290096,50.07191 c 2.462131,-2.133323 4.612387,-6.815877 9.776792,0"
       id="path69-4"
       inkscape:connector-curvature="0"
       sodipodi:nodetypes="cc" />
    <path
       style="fill:#ececec;stroke-width:0.04997928"
       d="m 27.662409,49.442418 c -0.908495,-1.137034 -1.949933,-2.082657 -2.77973,-2.523995 -1.377719,-0.732754 -2.536278,-0.619388 -3.838713,0.37562 -0.230076,0.175768 -0.920925,0.833617 -1.535218,1.461887 l -1.116896,1.142304 -0.350895,-0.214995 c -0.314057,-0.192422 -0.343744,-0.223846 -0.282763,-0.299303 0.03747,-0.04638 0.285596,-0.342383 0.551384,-0.657808 1.998885,-2.372173 2.663697,-3.38994 3.107188,-4.756813 0.863326,-2.660848 -0.09727,-5.445436 -3.059111,-8.867835 l -0.528079,-0.61019 0.118462,-0.09421 c 0.197188,-0.156828 0.28564,-0.164302 0.435199,-0.03678 1.981043,1.689311 3.055095,2.314388 4.379598,2.548836 0.9677,0.171293 1.749142,0.0468 2.685807,-0.427887 0.728073,-0.368974 1.654603,-1.1856 2.335364,-2.05835 l 0.284746,-0.365046 0.301713,0.175356 c 0.165942,0.09645 0.301711,0.186896 0.301711,0.201002 0,0.0141 -0.162423,0.281154 -0.360942,0.593445 -2.129769,3.350343 -2.83589,6.15141 -2.201419,8.732668 0.347132,1.412258 0.805884,2.362337 2.282557,4.727201 l 0.570479,0.91361 -0.403712,0.266394 c -0.222041,0.146519 -0.42625,0.266431 -0.4538,0.266472 -0.02755,4.1e-5 -0.226868,-0.221171 -0.44293,-0.491583 z m -3.560192,-5.607231 c 0.399164,-0.12334 0.752308,-0.564131 0.933813,-1.165582 0.174317,-0.577628 0.104149,-1.50335 -0.153419,-2.024044 -0.384643,-0.777586 -1.12163,-1.00796 -1.671545,-0.522503 -0.440389,0.388766 -0.654692,0.946128 -0.65956,1.71541 -0.0062,0.985831 0.381293,1.758878 0.995113,1.985027 0.225995,0.08327 0.317723,0.08519 0.555598,0.01169 z"
       id="path86"
       inkscape:connector-curvature="0" />
    <path
       style="fill:#ececec;stroke-width:0.04997928"
       d="M 27.653765,49.439206 C 26.75534,48.330933 25.676252,47.345128 24.907287,46.93015 24.261036,46.581399 23.844321,46.465581 23.234,46.465099 c -0.449047,-4.12e-4 -0.605693,0.02159 -0.918666,0.128721 -0.841863,0.288162 -1.355098,0.685754 -2.850314,2.208058 -0.584208,0.594794 -1.077509,1.081443 -1.096224,1.081443 -0.01871,0 -0.178478,-0.09409 -0.355027,-0.209082 -0.285637,-0.186047 -0.313467,-0.218199 -0.252622,-0.291847 0.03761,-0.04552 0.429498,-0.516732 0.870866,-1.047134 1.389743,-1.670083 1.992954,-2.53671 2.437674,-3.502176 0.486425,-1.056012 0.628037,-1.671391 0.63072,-2.740832 0.0015,-0.599963 -0.02113,-0.871688 -0.106795,-1.281909 -0.359476,-1.721442 -1.379634,-3.534124 -3.160104,-5.615075 l -0.602969,-0.704727 0.117981,-0.09384 c 0.184509,-0.146759 0.282055,-0.161437 0.406198,-0.06112 0.06295,0.05087 0.356054,0.294131 0.651335,0.540584 2.790141,2.328726 4.927562,2.697317 7.064981,1.218334 0.437274,-0.302569 1.183481,-1.027635 1.644078,-1.597496 l 0.354527,-0.438629 0.301271,0.175098 c 0.165696,0.0963 0.301266,0.187382 0.301266,0.202389 0,0.01501 -0.162328,0.282061 -0.360731,0.593446 -1.12889,1.771756 -1.887271,3.4873 -2.217653,5.016597 -0.471428,2.182165 -0.120446,4.223683 1.109376,6.452779 0.199533,0.361663 1.21048,2.03156 1.698851,2.806189 0.0638,0.101195 0.04579,0.120367 -0.345729,0.367984 -0.227168,0.143673 -0.432905,0.261224 -0.457195,0.261224 -0.02429,0 -0.224687,-0.222692 -0.44533,-0.49487 z m -3.364786,-5.695737 c 0.363021,-0.191 0.679833,-0.69602 0.794923,-1.267164 0.07113,-0.352994 0.03194,-1.169555 -0.07241,-1.508353 -0.11481,-0.372778 -0.361457,-0.727466 -0.638824,-0.91864 -0.425623,-0.293359 -0.946363,-0.204747 -1.310528,0.223009 -0.700759,0.823125 -0.689784,2.419105 0.02202,3.201867 0.385053,0.423444 0.754763,0.506074 1.204815,0.269281 z"
       id="path88"
       inkscape:connector-curvature="0" />
    <path
       style="fill:#ff0000;stroke-width:0.04997928"
       d="m 27.759226,49.566118 c -0.706259,-0.887562 -1.727247,-1.884594 -2.42762,-2.370665 -1.006493,-0.698522 -2.105333,-0.912295 -3.032676,-0.589989 -0.818809,0.284584 -1.363513,0.70782 -2.849788,2.214295 -0.577116,0.584958 -1.063941,1.063562 -1.081837,1.063562 -0.0179,0 -0.176644,-0.09386 -0.352775,-0.208583 -0.279108,-0.181797 -0.312139,-0.219159 -0.257169,-0.290895 0.03469,-0.04527 0.396146,-0.482443 0.803238,-0.971495 1.785075,-2.144469 2.468657,-3.214795 2.869446,-4.492878 0.204166,-0.651076 0.272222,-1.123826 0.270343,-1.877978 -0.0028,-1.131859 -0.217553,-1.973737 -0.828548,-3.248395 -0.567577,-1.184073 -1.305818,-2.267852 -2.478229,-3.638165 -0.598959,-0.700065 -0.607237,-0.723575 -0.300841,-0.854465 0.170508,-0.07284 0.09431,-0.119833 0.9148,0.564197 1.310461,1.092519 2.282792,1.658894 3.359592,1.956934 0.392754,0.108709 0.581806,0.131082 1.112909,0.131709 0.761048,8.4e-4 1.172761,-0.09567 1.862967,-0.436945 0.803217,-0.39716 1.60721,-1.081736 2.366346,-2.014877 l 0.360412,-0.443022 0.301191,0.175053 c 0.165655,0.09628 0.301189,0.189111 0.301189,0.206294 0,0.01719 -0.17455,0.307073 -0.38789,0.644201 -1.020229,1.6122 -1.679139,3.032738 -2.066286,4.454688 -0.442122,1.623869 -0.420703,3.306876 0.06136,4.821342 0.359253,1.128647 0.754127,1.909433 1.936106,3.828281 0.376499,0.611216 0.700004,1.138144 0.718901,1.17095 0.02198,0.03817 -0.114518,0.152387 -0.379126,0.317226 -0.227413,0.141668 -0.433673,0.257578 -0.458347,0.257578 -0.02468,0 -0.176628,-0.16558 -0.337666,-0.367958 z m -3.418532,-5.867039 c 0.268844,-0.16854 0.544091,-0.561914 0.669879,-0.957367 0.135246,-0.425191 0.126704,-1.397192 -0.01583,-1.799996 -0.12677,-0.358288 -0.293091,-0.624955 -0.498867,-0.79991 -0.176254,-0.149854 -0.381454,-0.232424 -0.615537,-0.247649 -0.276205,-0.01796 -0.322758,-0.0052 -0.547923,0.150239 -0.480349,0.331605 -0.764307,0.984087 -0.771946,1.773794 -0.0074,0.764235 0.217565,1.391521 0.634901,1.770382 0.366028,0.332285 0.734785,0.367866 1.14531,0.110507 z"
       id="path90"
       inkscape:connector-curvature="0"
       sodipodi:nodetypes="ccscsscsccccccccccccscscscsscccccscccccc" />
    <ellipse
       style="fill:#ffe680;stroke-width:0.18085611"
       id="path40-6"
       cx="89.01664"
       cy="42.606476"
       rx="10.837542"
       ry="10.594194" />
    <path
       style="fill:#000000;stroke-width:0.51082605"
       d="m 83.848806,51.541032 c -6.260728,-3.354779 -7.294578,-11.316298 -2.122014,-16.341285 4.52597,-4.396842 12.0544,-3.738301 15.916105,1.392239 2.566623,3.409945 2.431393,9.071677 -0.296505,12.412515 -3.272526,4.007871 -8.809794,5.04846 -13.497586,2.536531 z"
       id="path44-7"
       inkscape:connector-curvature="0" />
    <ellipse
       style="fill:#ececec;stroke-width:0.33306369"
       id="path46-2"
       cx="88.794571"
       cy="42.627075"
       rx="8.2820988"
       ry="8.3098202" />
    <path
       style="fill:none;stroke:#000000;stroke-width:0.17878911px;stroke-linecap:butt;stroke-linejoin:miter;stroke-opacity:1"
       d="m 83.833603,35.75682 c 6.327237,7.024023 2.688378,10.123673 -0.02473,13.587861"
       id="path48-6"
       inkscape:connector-curvature="0"
       sodipodi:nodetypes="cc" />
    <path
       style="fill:none;stroke:#000000;stroke-width:0.15527871px;stroke-linecap:butt;stroke-linejoin:miter;stroke-opacity:1"
       d="m 93.757999,35.535136 c -4.736871,7.07701 -2.012642,10.200043 0.01851,13.690365"
       id="path48-1-5"
       inkscape:connector-curvature="0"
       sodipodi:nodetypes="cc" />
    <ellipse
       style="fill:#000000;stroke-width:0.17878911"
       id="path65-4"
       cx="89.273903"
       cy="42.49757"
       rx="1.1127892"
       ry="1.7948741" />
    <ellipse
       style="fill:#ffffff;stroke-width:0.51740843"
       id="path67-1"
       cx="89.311005"
       cy="42.470978"
       rx="0.60585183"
       ry="0.89078927" />
    <path
       style="fill:none;stroke:#000000;stroke-width:0.17878911px;stroke-linecap:butt;stroke-linejoin:miter;stroke-opacity:1"
       d="m 84.377635,35.397845 c 2.74249,2.662378 5.51889,4.145704 8.457195,0"
       id="path69-8"
       inkscape:connector-curvature="0"
       sodipodi:nodetypes="cc" />
    <path
       style="fill:none;stroke:#000000;stroke-width:0.08794077px;stroke-linecap:butt;stroke-linejoin:miter;stroke-opacity:1"
       d="m 84.471151,49.896199 c 2.129811,-1.924061 3.989843,-6.147292 8.457197,0"
       id="path69-4-2"
       inkscape:connector-curvature="0"
       sodipodi:nodetypes="cc" />
    <path
       style="fill:#ececec;stroke-width:0.04414546"
       d="m 92.578465,49.328455 c -0.785876,-1.0255 -1.686748,-1.878363 -2.404546,-2.27641 -1.191765,-0.660877 -2.19395,-0.558633 -3.320594,0.338774 -0.199023,0.158527 -0.796626,0.751847 -1.328006,1.318486 l -0.966145,1.030255 -0.303536,-0.193907 c -0.271667,-0.173546 -0.297347,-0.201888 -0.244598,-0.269944 0.03242,-0.04182 0.247049,-0.308798 0.476963,-0.593279 1.729092,-2.139484 2.304173,-3.057415 2.687804,-4.290209 0.746803,-2.39984 -0.08414,-4.911282 -2.646216,-7.99797 l -0.456803,-0.550337 0.102473,-0.08498 c 0.170573,-0.141444 0.247087,-0.148185 0.376458,-0.03316 1.713658,1.523603 2.642744,2.087364 3.788474,2.298815 0.837088,0.15449 1.513056,0.04221 2.323296,-0.385915 0.629806,-0.332781 1.431283,-1.069302 2.020158,-1.856443 l 0.246317,-0.329238 0.260984,0.158157 c 0.143544,0.08698 0.260991,0.168562 0.260991,0.181284 0,0.01271 -0.140502,0.253574 -0.312222,0.535232 -1.842309,3.021701 -2.453127,5.548006 -1.904294,7.876063 0.30028,1.273726 0.697114,2.13061 1.974475,4.2635 l 0.493481,0.823992 -0.34922,0.240263 c -0.192071,0.132146 -0.36872,0.240294 -0.39255,0.240331 -0.02385,3.8e-5 -0.196245,-0.199474 -0.383144,-0.443363 z M 89.498797,44.27125 c 0.34529,-0.11124 0.65077,-0.508795 0.807772,-1.051248 0.150792,-0.520968 0.0901,-1.355883 -0.132709,-1.825501 -0.332725,-0.701311 -0.97024,-0.909086 -1.445933,-0.47125 -0.380949,0.350632 -0.566326,0.853321 -0.570538,1.547143 -0.0054,0.889128 0.329828,1.586344 0.860801,1.79031 0.195491,0.0751 0.27484,0.07684 0.480607,0.01055 z"
       id="path86-7"
       inkscape:connector-curvature="0" />
    <path
       style="fill:#ececec;stroke-width:0.04414546"
       d="M 92.570983,49.325557 C 91.793827,48.325998 90.860379,47.436893 90.195202,47.062621 89.63618,46.74808 89.27571,46.643623 88.747765,46.643187 c -0.388438,-3.71e-4 -0.523941,0.01947 -0.794672,0.116094 -0.728234,0.259898 -1.172197,0.618488 -2.465601,1.991468 -0.505354,0.536448 -0.932075,0.975359 -0.948264,0.975359 -0.01618,0 -0.154388,-0.08485 -0.307108,-0.188572 -0.247084,-0.167796 -0.271158,-0.196794 -0.218525,-0.263219 0.03253,-0.04105 0.371528,-0.466046 0.753324,-0.944418 1.202166,-1.506261 1.72396,-2.287879 2.108656,-3.15864 0.420771,-0.952425 0.543269,-1.507441 0.545589,-2.471978 0.0014,-0.541112 -0.01828,-0.786182 -0.09238,-1.156163 -0.310956,-1.552582 -1.193421,-3.187455 -2.733577,-5.06428 l -0.521586,-0.635599 0.102058,-0.08464 c 0.159604,-0.132362 0.243984,-0.145599 0.351372,-0.05512 0.05446,0.04588 0.307996,0.26528 0.563422,0.487555 2.413551,2.100297 4.26248,2.432734 6.111403,1.098827 0.378255,-0.27289 1.023747,-0.926832 1.422178,-1.440794 l 0.306672,-0.395603 0.260606,0.157922 c 0.143337,0.08686 0.260607,0.169 0.260607,0.182536 0,0.01353 -0.140417,0.254393 -0.31204,0.535234 -0.976522,1.59796 -1.632543,3.145223 -1.918337,4.524508 -0.407795,1.968112 -0.104185,3.809374 0.959645,5.819811 0.172601,0.326187 1.047094,1.83228 1.469551,2.530924 0.05519,0.09127 0.03962,0.108561 -0.299068,0.331888 -0.196503,0.129581 -0.374468,0.235601 -0.395478,0.235601 -0.02098,0 -0.194361,-0.200848 -0.385229,-0.446329 z m -2.910631,-5.137028 c 0.314025,-0.172265 0.588077,-0.627747 0.687629,-1.142864 0.06151,-0.318371 0.02763,-1.054833 -0.06263,-1.360398 -0.09931,-0.336211 -0.312667,-0.656105 -0.552598,-0.828527 -0.368176,-0.264582 -0.81863,-0.184663 -1.133644,0.201133 -0.606175,0.742383 -0.596681,2.181811 0.01905,2.88779 0.333083,0.381906 0.652893,0.456432 1.0422,0.242866 z"
       id="path88-3"
       inkscape:connector-curvature="0" />
    <path
       style="fill:#ff0000;stroke-width:0.04414546"
       d="m 92.662214,49.440021 c -0.610933,-0.800499 -1.49412,-1.699729 -2.099958,-2.138121 -0.870648,-0.630003 -1.821173,-0.822805 -2.623352,-0.532116 -0.708292,0.256668 -1.179477,0.638389 -2.465146,1.997091 -0.499221,0.527578 -0.92034,0.959233 -0.935819,0.959233 -0.01547,0 -0.152802,-0.08466 -0.30516,-0.188123 -0.241437,-0.163963 -0.270009,-0.197659 -0.222458,-0.262359 0.03001,-0.04084 0.342676,-0.435118 0.694823,-0.876198 1.544139,-1.934114 2.135457,-2.89945 2.48215,-4.052163 0.17661,-0.587211 0.235479,-1.013586 0.233855,-1.693762 -0.0024,-1.020832 -0.18819,-1.780129 -0.716716,-2.929754 -0.490971,-1.067924 -1.129571,-2.045392 -2.143739,-3.281291 -0.518116,-0.631392 -0.525276,-0.652596 -0.260235,-0.770647 0.147494,-0.06569 0.08159,-0.108077 0.791327,0.508854 1.133585,0.985352 1.974679,1.496168 2.906142,1.764975 0.339742,0.09804 0.503277,0.118223 0.962696,0.118788 0.658327,7.52e-4 1.01447,-0.08628 1.611518,-0.394083 0.694807,-0.358202 1.390279,-0.975627 2.046953,-1.817234 l 0.311768,-0.399566 0.260541,0.157881 c 0.143291,0.08684 0.260535,0.170562 0.260535,0.186059 0,0.0155 -0.150994,0.276952 -0.335538,0.581012 -0.882522,1.454055 -1.4525,2.735249 -1.787395,4.017717 -0.382446,1.464581 -0.36392,2.982496 0.05312,4.348406 0.310765,1.017936 0.652347,1.722132 1.674791,3.452756 0.325679,0.551261 0.605516,1.026502 0.621866,1.056089 0.01903,0.03442 -0.09906,0.13744 -0.327956,0.286109 -0.196718,0.127771 -0.375139,0.232313 -0.396481,0.232313 -0.02138,0 -0.152786,-0.149339 -0.292088,-0.331866 z m -2.957131,-5.291528 c 0.232562,-0.152007 0.47066,-0.506795 0.579467,-0.863457 0.11699,-0.383483 0.109607,-1.260138 -0.01369,-1.623429 -0.203589,-0.599926 -0.525099,-0.915039 -0.96399,-0.944802 -0.238926,-0.0162 -0.279196,-0.0047 -0.47397,0.135501 -0.415516,0.299078 -0.661145,0.887555 -0.667755,1.599798 -0.0064,0.68927 0.188201,1.255023 0.549207,1.596721 0.316627,0.299692 0.63561,0.331782 0.990727,0.09967 z"
       id="path90-2"
       inkscape:connector-curvature="0" />
    <path
       style="fill:none;stroke:#000000;stroke-width:0.23834361px;stroke-linecap:butt;stroke-linejoin:miter;stroke-opacity:1"
       d="m 76.121348,29.562737 c -2.466197,3.35726 -3.369443,6.381686 -2.352016,8.997096 l 0.784005,0.927535 c -0.274017,2.566182 -0.557327,5.132365 -4.573364,7.698547 -2.843934,1.285213 -16.154012,0.09399 -25.610837,-0.185508 -3.013887,-0.133044 -1.906932,-2.526435 2.744018,-6.863763 1.839346,-0.817034 4.266822,-0.590367 6.794711,-0.185507 l -0.653336,-0.834783 1.045341,-1.020288 2.221348,-0.09275 0.261334,1.205798 2.09068,0.556522 c 1.219565,-1.256513 2.439128,-0.905573 3.658691,-0.463769 -0.343767,-1.75272 0.591883,-4.270641 -1.306674,-9.460864 4.81177,-0.855965 9.736869,-1.148794 14.896099,-0.278261 z"
       id="path163"
       inkscape:connector-curvature="0"
       sodipodi:nodetypes="ccccccccccccccc" />
    <ellipse
       style="fill:#4d4d4d;stroke-width:0.27602375"
       id="path165"
       cx="62.531914"
       cy="43.475773"
       rx="7.4480491"
       ry="3.7101426" />
    <path
       style="fill:#000000;stroke-width:0.11009032"
       d="M 59.556057,47.533566 C 58.513985,47.491895 54.95656,47.332207 51.650671,47.178704 48.344784,47.0252 45.219027,46.881114 44.70455,46.85851 c -1.130762,-0.04967 -1.445394,-0.157456 -1.694348,-0.580402 -0.16805,-0.285502 -0.166242,-0.390314 0.01548,-0.896881 0.388684,-1.083544 1.537516,-2.539783 3.439357,-4.359672 l 0.931063,-0.890943 0.934421,-0.20147 c 0.803726,-0.17329 1.13782,-0.194437 2.388625,-0.151184 0.799813,0.02765 1.889272,0.117469 2.421021,0.199583 0.531751,0.08211 0.993152,0.130605 1.025337,0.107758 0.03219,-0.02284 -0.104137,-0.246926 -0.30292,-0.497954 l -0.361434,-0.456413 0.427903,-0.42296 c 0.476347,-0.470838 0.664818,-0.52913 1.716719,-0.530959 l 0.728404,-0.0012 0.120931,0.570112 0.120931,0.570109 1.161507,0.31268 1.161504,0.312678 0.446827,-0.37055 c 0.646097,-0.535803 1.201415,-0.631479 2.198194,-0.37873 0.429737,0.108968 0.869538,0.219241 0.977341,0.245053 0.172496,0.04131 0.185657,-0.267877 0.109735,-2.578224 -0.09849,-2.997177 -0.24488,-3.876194 -1.119195,-6.720018 -0.05502,-0.17895 0.02976,-0.213769 0.833436,-0.342291 2.928877,-0.468383 5.732248,-0.662795 8.40807,-0.583093 1.742184,0.05189 4.735113,0.327338 4.910642,0.451936 0.03132,0.02223 -0.185391,0.412237 -0.481574,0.866684 -0.666311,1.022354 -1.467527,2.716737 -1.750372,3.701628 -0.533428,1.85744 -0.331159,3.882304 0.481272,4.817948 l 0.407241,0.469005 -0.159914,1.104976 c -0.378111,2.612675 -1.333611,4.197699 -3.506276,5.81637 -0.826506,0.615762 -1.045524,0.726128 -1.699428,0.856368 -1.634759,0.325597 -5.050055,0.410692 -9.439001,0.235178 z m 5.329522,-0.512641 c 2.004967,-0.295892 3.909797,-1.218093 4.684545,-2.267968 0.321488,-0.435657 0.370579,-0.605844 0.372171,-1.290257 0.0017,-0.698792 -0.04147,-0.843867 -0.379039,-1.276366 -0.436352,-0.559035 -1.440378,-1.267831 -2.297812,-1.622149 -1.200696,-0.496163 -2.54119,-0.741489 -4.316867,-0.790034 -1.378031,-0.03768 -1.813787,-0.01356 -2.744016,0.15185 -3.163623,0.562553 -5.116229,1.907381 -5.137267,3.538217 -0.0067,0.52016 0.06096,0.720968 0.415023,1.231482 1.351876,1.949271 5.31323,2.928827 9.403262,2.325225 z"
       id="path167"
       inkscape:connector-curvature="0" />
    <path
       style="fill:none;stroke:#000000;stroke-width:0.26458332px;stroke-linecap:butt;stroke-linejoin:miter;stroke-opacity:1"
       d="M 53.772569,22.026632 C 46.399209,22.138675 39.02585,22.541353 31.65249,21.41558 l -3.421891,-5.132836 c -9.718754,-0.990995 -12.432538,3.112533 -15.154088,7.210413 l -0.12221,1.344314 C 26.601127,26.630263 40.247954,24.82323 53.89478,24.59305 l 1.588733,-0.977683 z"
       id="path169"
       inkscape:connector-curvature="0"
       sodipodi:nodetypes="cccccccc" />
    <path
       style="fill:none;stroke:#000000;stroke-width:0.26458332px;stroke-linecap:butt;stroke-linejoin:miter;stroke-opacity:1"
       d="m 31.65249,21.41558 3.788521,3.910732"
       id="path171"
       inkscape:connector-curvature="0" />
    <path
       style="fill:#ff0000;stroke-width:0.46189752"
       d="M 77.010172,95.633482 C 69.75216,95.245651 56.74703,94.156718 51.836757,93.525685 l -2.078539,-0.267118 0.169271,-2.125972 c 0.182676,-2.29435 2.609037,-6.198415 7.987494,-12.852042 9.996913,-12.367067 23.5628,-17.461735 43.575757,-16.364876 l 4.61898,0.253154 6.2728,9.340576 c 5.29389,7.882895 7.32831,10.450639 13.03626,16.453674 l 6.76345,7.113099 -1.95072,0.289306 c -3.36171,0.498568 -44.983999,0.708157 -53.221338,0.267996 z"
       id="path173"
       inkscape:connector-curvature="0"
       transform="scale(0.26458333)" />
    <path
       style="fill:#a05a2c;stroke-width:0.46189752"
       d="m 127.8189,88.390084 c -3.55661,-3.690535 -6.05086,-6.587709 -5.54277,-6.438165 1.82912,0.538364 14.04943,1.678953 23.55677,2.198683 6.47623,0.354032 17.56896,0.427891 33.37797,0.222243 l 23.67812,-0.308011 2.74204,2.413642 c 1.50812,1.327504 2.64428,2.571814 2.5248,2.765136 -0.11947,0.193321 -1.30407,0.961823 -2.63243,1.707782 l -2.4152,1.35629 -10.8546,0.288926 c -5.97002,0.158909 -21.03943,0.80624 -33.48757,1.438514 -12.44813,0.632273 -23.04868,1.130562 -23.55677,1.107306 -0.55275,-0.0253 -3.52108,-2.737368 -7.39036,-6.752346 z"
       id="path175"
       inkscape:connector-curvature="0"
       transform="scale(0.26458333)" />
    <path
       style="fill:none;stroke:#000000;stroke-width:0.26458332px;stroke-linecap:butt;stroke-linejoin:miter;stroke-opacity:1"
       d="m 53.772569,22.026632 c 4.816052,-2.75462 0.605489,-7.765895 22.555936,-6.236916 4.277343,0.866474 4.006243,1.732949 5.671468,2.599423 0.603502,6.326734 -1.257301,5.612594 -2.599423,6.380401 -15.663746,0.917675 -28.982346,1.515592 -25.50577,-0.17649"
       id="path177"
       inkscape:connector-curvature="0"
       sodipodi:nodetypes="ccccc" />
    <path
       style="fill:#ff0000;stroke-width:0.41666666"
       d="m 208.22679,95.922825 c -3.76464,-0.383117 -5.625,-0.798989 -5.625,-1.257435 0,-0.171644 1.45312,-1.172186 3.22916,-2.223426 5.53114,-3.27388 5.38147,-2.758192 1.77084,-6.101792 l -3.125,-2.893879 0.99886,-0.714181 c 2.29114,-1.638155 4.10919,-3.506378 7.05297,-7.247635 5.83855,-7.420225 8.82639,-9.828271 14.98216,-12.074849 8.16902,-2.981322 16.87645,-3.952743 35.09101,-3.914835 27.02189,0.05624 34.34755,1.391029 42.79409,7.797409 1.65134,1.252475 3.21397,2.34774 3.47252,2.433922 0.70442,0.234809 1.01674,9.52536 0.44335,13.188684 -0.50852,3.248884 -1.50573,5.630016 -2.87729,6.870385 -0.46163,0.417478 -2.17519,1.302683 -3.80791,1.967121 -2.95956,1.204404 -3.02767,1.211265 -22.43417,2.260092 -36.74098,1.98567 -64.09164,2.711729 -71.96559,1.910419 z"
       id="path181"
       inkscape:connector-curvature="0"
       transform="scale(0.26458333)" />
    <path
       style="fill:none;stroke:#000000;stroke-width:0.26458332px;stroke-linecap:butt;stroke-linejoin:miter;stroke-opacity:1"
       d="m 89.498796,44.271252 v 0"
       id="path185"
       inkscape:connector-curvature="0" />
    <path
       style="fill:none;stroke:#000000;stroke-width:0.26458332px;stroke-linecap:butt;stroke-linejoin:miter;stroke-opacity:1"
       d="m 80.47743,12.572916 c 6.283855,24.143231 3.546343,16.80861 6.283855,24.253472 2.737511,7.444864 2.737511,7.444864 2.737511,7.444864"
       id="path187"
       inkscape:connector-curvature="0" />
    <path
       style="fill:none;stroke:#000000;stroke-width:0.26458332px;stroke-linecap:butt;stroke-linejoin:miter;stroke-opacity:1"
       d="m 80.477428,12.572916 v 0 c 2e-6,0 2e-6,0 2e-6,0"
       id="path191"
       inkscape:connector-curvature="0" />
    <path
       style="fill:none;stroke:#000000;stroke-width:0.26458332px;stroke-linecap:butt;stroke-linejoin:miter;stroke-opacity:1"
       d="m 80.477428,12.572916 c 0,0 0,0 0,0 v 0 c 2.42535,-0.551215 2.42535,-0.551215 2.42535,-0.551215 l 6.802305,32.126792"
       id="path195"
       inkscape:connector-curvature="0" />
    <path
       style="fill:#000000;stroke-width:0.41666666"
       d="m 322.90711,122.08486 c -0.12627,-0.53646 -1.43658,-6.41288 -2.9118,-13.05872 -3.31202,-14.920522 -5.7732,-25.116867 -10.896,-45.140644 -2.18906,-8.556523 -3.8856,-15.651828 -3.77009,-15.767343 0.41569,-0.415691 7.15339,-1.750563 7.40104,-1.466293 0.25536,0.293122 15.81238,73.65338 15.79664,74.49022 -0.005,0.2471 -0.89907,0.65582 -1.98761,0.90827 -1.08854,0.25244 -2.29944,0.58294 -2.69089,0.73444 -0.52058,0.20148 -0.77337,0.0135 -0.94129,-0.69993 z"
       id="path197"
       inkscape:connector-curvature="0"
       transform="scale(0.26458333)" />
    <path
       style="fill:#000000;stroke-width:0.41666666"
       d="m 330.94837,141.89037 c -1.44247,-0.59882 -1.62749,-0.90459 -3.29001,-5.43718 -1.42923,-3.89657 -1.65345,-4.8695 -1.18843,-5.15689 0.76615,-0.47351 3.70984,-0.95606 4.00876,-0.65714 0.20614,0.20614 2.58258,10.77417 2.61213,11.61615 0.0152,0.43413 -0.37963,0.36687 -2.14245,-0.36494 z"
       id="path199"
       inkscape:connector-curvature="0"
       transform="scale(0.26458333)" />
    <path
       style="fill:#000000;stroke-width:0.41666666"
       d="m 332.2742,149.17082 c -1.18661,-3.2121 -2.06089,-5.93675 -1.94286,-6.05479 0.11804,-0.11803 0.86524,1.2e-4 1.66046,0.26256 1.59384,0.52602 1.51169,0.33309 2.79291,6.5599 0.97436,4.73545 0.96626,4.56625 0.23202,4.84801 -0.4319,0.16573 -1.14987,-1.3044 -2.74253,-5.61568 z"
       id="path201"
       inkscape:connector-curvature="0"
       transform="scale(0.26458333)" />
    <path
       style="fill:#000000;stroke-width:0.41666666"
       d="m 336.24966,159.72552 c -0.17078,-0.76118 -0.20804,-1.48643 -0.0828,-1.61167 0.3135,-0.3135 0.81021,1.79133 0.57979,2.45691 -0.10257,0.2963 -0.32622,-0.0841 -0.49699,-0.84524 z"
       id="path203"
       inkscape:connector-curvature="0"
       transform="scale(0.26458333)" />
    <path
       style="fill:#000000;stroke-width:0.41666666"
       d=""
       id="path205"
       inkscape:connector-curvature="0"
       transform="scale(0.26458333)" />
    <path
       style="fill:#000000;stroke-width:0.41666666"
       d="m 336.88468,161.49142 c 0.02,-0.48539 0.11873,-0.58412 0.25174,-0.25173 0.12036,0.30078 0.10556,0.66015 -0.0329,0.79861 -0.13845,0.13845 -0.23693,-0.10764 -0.21884,-0.54688 z"
       id="path207"
       inkscape:connector-curvature="0"
       transform="scale(0.26458333)" />
    <path
       style="fill:#000000;stroke-width:0.41666666"
       d=""
       id="path209"
       inkscape:connector-curvature="0"
       transform="scale(0.26458333)" />
    <path
       style="fill:#000000;stroke-width:0.09715966"
       d="m 336.48117,160.32994 c -0.27027,-0.67736 -0.41927,-2.16057 -0.21704,-2.16057 0.14729,0 0.4,0.88204 0.46229,1.61361 0.0629,0.73866 -0.0597,1.01205 -0.24525,0.54696 z"
       id="path211"
       inkscape:connector-curvature="0"
       transform="scale(0.26458333)" />
    <path
       style="fill:#000000;stroke-width:0.09715966"
       d="m 335.94388,159.42883 -0.27408,-0.77141 0.20293,-0.31689 0.20294,-0.3169 0.002,0.55389 c 9e-4,0.30464 0.0496,0.77766 0.10829,1.05117 0.0587,0.27351 0.0899,0.514 0.0695,0.53442 -0.0204,0.0204 -0.16048,-0.31001 -0.31123,-0.73428 z"
       id="path213"
       inkscape:connector-curvature="0"
       transform="scale(0.26458333)" />
    <path
       style="fill:#000000;stroke-width:0.09715966"
       d="m 333.94143,199.78411 c -6.97143,-0.52314 -14.17098,-2.9879 -20.15486,-6.90001 -2.53192,-1.6553 -4.32632,-3.11902 -6.51813,-5.31693 -9.63424,-9.66108 -13.12646,-23.38614 -9.30939,-36.58761 1.19158,-4.12114 3.42077,-8.64357 6.02025,-12.21347 2.27321,-3.12182 5.46498,-6.42038 8.37793,-8.65821 l 0.90827,-0.69777 h 23.27048 23.27048 l 1.08277,0.81504 c 2.61451,1.96803 5.31507,4.58203 7.33859,7.10338 4.07334,5.07546 6.54862,11.22751 7.4471,18.50901 0.21461,1.73924 0.30052,6.49356 0.15011,8.30715 -0.70096,8.45167 -3.49036,15.66253 -8.31223,21.4879 -1.18836,1.43567 -3.62989,3.86717 -5.11685,5.09583 -6.22712,5.14541 -13.61272,8.20956 -21.64166,8.97872 -1.35139,0.12946 -5.49022,0.17622 -6.81286,0.077 z m 5.5381,-7.46223 c 2.85352,-0.38187 5.27898,-1.01048 7.77277,-2.0145 1.44838,-0.58312 3.69207,-1.70126 3.69207,-1.83994 0,-0.0542 -0.42265,-0.64794 -0.93922,-1.31945 -5.85268,-7.60817 -10.95104,-11.05645 -15.55093,-10.51791 -3.23561,0.37882 -5.90765,2.21969 -10.50605,7.23802 -0.83242,0.90845 -2.10224,2.2782 -2.82182,3.04391 -1.02435,1.09 -1.27814,1.41184 -1.16925,1.48274 0.0765,0.0498 0.88235,0.45867 1.79079,0.90858 3.74376,1.8541 7.23006,2.79988 11.8049,3.20246 0.92115,0.0811 4.86006,-0.0412 5.92674,-0.18391 z m 13.89383,-5.30311 c 2.21421,-1.51423 4.86978,-3.97465 6.54655,-6.06546 2.65084,-3.30541 4.78397,-7.43002 5.85391,-11.3191 1.67886,-6.10238 1.54176,-12.43312 -0.39661,-18.31459 -1.62336,-4.92566 -3.9775,-8.74537 -7.672,-12.44821 -1.46924,-1.47255 -3.70933,-3.37616 -3.86193,-3.28184 -0.0379,0.0234 -0.45773,0.66476 -0.93297,1.4252 -2.9115,4.65875 -5.33386,9.70602 -6.56607,13.68118 -1.14908,3.70698 -1.61809,6.6054 -1.61809,9.99958 0,5.00487 1.09734,9.22459 3.79816,14.6054 1.00764,2.00751 1.77385,3.35916 4.23182,7.46526 0.98073,1.63834 1.78314,3.02497 1.78314,3.0814 0,0.0564 -0.0768,0.14369 -0.17058,0.1939 -0.14797,0.0792 -0.45602,-0.38712 -2.3244,-3.51862 -2.66061,-4.45932 -3.13017,-5.29642 -4.20495,-7.49629 -2.06524,-4.22719 -3.04914,-7.43239 -3.50443,-11.41626 -0.13875,-1.21407 -0.13908,-4.54256 -5.8e-4,-5.82958 0.70125,-6.5166 3.35623,-13.35269 8.17642,-21.05284 0.47443,-0.7579 0.86261,-1.41441 0.86261,-1.45891 0,-0.16723 -2.18742,-1.50925 -3.67638,-2.2555 -4.48642,-2.24859 -9.00813,-3.30983 -14.10384,-3.31016 -1.78292,-1.2e-4 -3.74715,0.11812 -3.86148,0.23245 -0.0183,0.0183 0.59158,2.98881 1.3554,6.60103 l 1.38874,6.56767 0.42388,0.0638 c 0.23313,0.0351 1.08571,0.0408 1.89461,0.0126 1.13906,-0.0397 1.68404,-0.10696 2.41654,-0.29818 3.9159,-1.02226 7.49843,-3.89507 11.28805,-9.05181 0.14251,-0.19392 0.14323,-0.1939 0.34833,0.008 l 0.20554,0.20263 -0.57076,0.76896 c -2.70165,3.63986 -5.61322,6.25846 -8.52489,7.66711 -2.01988,0.9772 -3.51072,1.31185 -5.84416,1.31185 h -1.4951 l 0.0531,0.21861 c 0.0918,0.37801 2.08804,9.81597 2.08899,9.87674 4.8e-4,0.0318 0.30023,0.0648 0.66608,0.0734 0.94767,0.0222 1.52644,0.29752 2.24913,1.07008 0.6736,0.72008 1.1515,1.6077 1.51903,2.82132 0.24176,0.79833 0.25864,0.97711 0.25955,2.74849 8.7e-4,1.62118 -0.0282,2.00109 -0.20148,2.63238 -0.28455,1.03694 -0.68748,1.87504 -1.27097,2.64367 -0.27598,0.36354 -0.50177,0.69575 -0.50177,0.73825 0,0.0425 -0.16396,0.15058 -0.36435,0.24018 -0.20039,0.0896 -0.51738,0.24784 -0.70441,0.35167 -0.46559,0.25845 -1.50302,0.19084 -2.18609,-0.14246 -1.7419,-0.84996 -2.96337,-3.53008 -2.96337,-6.50218 0,-0.9194 0.2271,-2.36728 0.49213,-3.1376 l 0.18149,-0.52751 -2.77468,-7.54708 c -1.52607,-4.1509 -2.81131,-7.61554 -2.85609,-7.69921 -0.0448,-0.0837 -0.46707,-0.38585 -0.93843,-0.67151 -2.28214,-1.38306 -4.9698,-3.49028 -7.46873,-5.85572 l -0.81161,-0.76825 -0.75768,0.50654 c -0.41673,0.27859 -0.7725,0.51842 -0.79061,0.53294 -0.0181,0.0145 0.4847,0.63099 1.11734,1.36992 7.04544,8.22916 10.84024,15.482 11.60082,22.17217 0.17098,1.50395 0.07,4.82826 -0.1881,6.19343 -0.81188,4.29405 -2.7222,8.17967 -6.56001,13.3432 -0.90292,1.21482 -1.47803,1.94048 -5.04081,6.36047 -0.7287,0.90403 -1.30473,1.67633 -1.28006,1.71624 0.0673,0.10883 2.24522,1.54664 2.34282,1.54664 0.16181,0 4.12923,-4.16889 5.75826,-6.05068 0.50605,-0.58457 2.75042,-2.62073 3.5619,-3.23147 5.56133,-4.18558 10.94084,-3.08353 17.3834,3.56118 1.2745,1.31449 2.78851,3.0944 4.14078,4.86798 l 0.86826,1.13879 0.6529,-0.3984 c 0.3591,-0.21912 1.02454,-0.65255 1.47876,-0.96318 z m -36.13323,-1.57614 c 0.29949,-0.38505 1.49718,-1.88058 2.66152,-3.3234 3.38809,-4.19844 5.05447,-6.51112 6.50066,-9.02191 1.55766,-2.70431 2.56443,-5.34748 3.09547,-8.12677 0.18465,-0.96638 0.21374,-1.45207 0.21535,-3.59491 0.002,-2.17644 -0.0257,-2.62984 -0.22452,-3.7304 -1.14399,-6.33136 -4.81658,-12.97937 -11.42485,-20.68092 -0.53875,-0.62787 -1.01545,-1.1416 -1.05936,-1.14163 -0.21567,-1.1e-4 -2.13471,1.67141 -3.56421,3.1045 -2.24834,2.25398 -3.84359,4.36839 -5.31796,7.04865 -3.63028,6.59949 -4.74529,14.44325 -3.12138,21.95808 0.3288,1.52154 1.22262,4.30145 1.81485,5.64439 1.666,3.77787 3.81506,6.94411 6.62386,9.75903 0.98691,0.98906 3.07555,2.81811 3.20745,2.80881 0.0267,-0.002 0.29362,-0.31847 0.59312,-0.70352 z m 20.67357,-21.75944 c -0.009,-0.17807 -0.0198,-0.18541 -0.0574,-0.0396 -0.031,0.12022 -0.10709,0.16311 -0.23163,0.13055 -0.102,-0.0267 -0.18546,-0.009 -0.18546,0.0396 0,0.0484 0.10931,0.0881 0.2429,0.0881 0.19047,0 0.24047,-0.0472 0.23163,-0.2186 z m -0.11668,-0.47973 c -0.031,-0.0775 -0.054,-0.0545 -0.0587,0.0587 -0.004,0.10242 0.0188,0.15981 0.051,0.12752 0.0323,-0.0323 0.0357,-0.11608 0.008,-0.18622 z m -2.01199,-1.30008 c -0.27084,-0.74056 -0.51773,-1.36993 -0.54865,-1.39861 -0.11501,-0.10669 0.0915,1.1309 0.26493,1.58797 0.19163,0.50493 0.66037,1.2729 0.73275,1.20052 0.0239,-0.0239 -0.17819,-0.64932 -0.44903,-1.38988 z m 3.33825,1.12549 c 0.49315,-0.58607 0.68753,-1.30071 0.68753,-2.52766 0,-0.92508 -0.037,-1.21062 -0.215,-1.65943 -0.27211,-0.68608 -0.81759,-1.32727 -1.32536,-1.55791 -0.46087,-0.20933 -0.87218,-0.24073 -0.80957,-0.0618 0.0234,0.0668 0.32318,1.46573 0.66623,3.10873 0.34305,1.64301 0.65262,2.98746 0.68795,2.98766 0.0353,2e-4 0.17403,-0.13011 0.30822,-0.28959 z m -1.42342,-0.31121 c -0.031,-0.0775 -0.054,-0.0545 -0.0587,0.0587 -0.004,0.10242 0.0188,0.15981 0.051,0.12752 0.0323,-0.0323 0.0357,-0.11608 0.008,-0.18622 z m -0.0992,-0.49187 c -0.0269,-0.0668 -0.049,-0.0121 -0.049,0.12145 0,0.13359 0.0221,0.18825 0.049,0.12145 0.0269,-0.0668 0.0269,-0.1761 0,-0.2429 z m -0.63257,-0.25809 c -0.16673,-0.10304 -0.6305,-1.37908 -0.65659,-1.80655 -0.013,-0.21375 -0.0556,-0.75661 -0.0946,-1.20636 -0.0647,-0.74713 -0.0565,-0.81222 0.0949,-0.7541 0.0983,0.0377 0.14161,0.0245 0.10642,-0.0324 -0.0327,-0.0528 -0.12998,-0.096 -0.2163,-0.096 -0.12425,0 -0.10795,-0.0521 0.0782,-0.2503 l 0.23515,-0.25031 0.0636,0.22602 c 0.0621,0.2209 0.0638,0.2212 0.0733,0.0131 0.0167,-0.36613 -0.20094,-0.37575 -0.50043,-0.0221 -0.65066,0.76829 -0.65361,0.67781 0.0885,2.71627 0.47284,1.2989 0.68885,1.78262 0.74874,1.67665 0.0516,-0.0913 0.0435,-0.17405 -0.0209,-0.21385 z m 0.53541,-0.22771 c -0.0269,-0.0668 -0.049,-0.0121 -0.049,0.12145 0,0.1336 0.022,0.18825 0.049,0.12145 0.0269,-0.0668 0.0269,-0.1761 0,-0.2429 z m -0.15274,-0.31577 c 0.11015,0.25538 0.01,-0.38619 -0.16488,-1.05502 -0.12279,-0.46995 -0.12018,-0.40898 0.0244,0.56922 0.0552,0.37326 0.051,0.38095 -0.10511,0.19432 -0.16043,-0.19179 -0.16121,-0.19155 -0.06,0.0179 0.0564,0.11672 0.10951,0.33533 0.11806,0.48579 0.0134,0.23595 0.0216,0.2268 0.0596,-0.0665 0.0377,-0.29081 0.0562,-0.31192 0.1279,-0.14574 z m -0.55354,-0.88238 c 0.0914,-0.2381 0.0641,-0.30254 -0.0471,-0.11146 -0.0551,0.0946 -0.14797,0.14254 -0.20638,0.10644 -0.0637,-0.0394 -0.0784,-0.0207 -0.0369,0.0465 0.0972,0.15725 0.22087,0.13957 0.29036,-0.0415 z m 0.20326,-1.13368 c -0.0369,-0.22711 -0.10066,-0.44878 -0.14165,-0.49259 -0.041,-0.0438 -0.0307,0.142 0.0229,0.41292 0.11784,0.596 0.21308,0.65988 0.11877,0.0797 z m -0.22241,-1.11734 c -0.0282,-0.14695 -0.0699,-0.21109 -0.0929,-0.14253 -0.0413,0.12364 0.0326,0.40972 0.10588,0.40972 0.021,0 0.0151,-0.12023 -0.013,-0.26719 z m -1.22723,-3.68388 0.36052,-0.28923 -1.09567,-5.19111 c -0.60263,-2.85511 -1.1252,-5.27266 -1.16129,-5.37232 -0.0479,-0.13227 -0.31194,-0.24501 -0.97784,-0.4175 -0.50173,-0.12997 -1.42841,-0.44935 -2.05928,-0.70973 -0.63087,-0.26038 -1.12902,-0.44414 -1.107,-0.40835 0.022,0.0358 1.14107,3.05928 2.48676,6.71888 1.34569,3.65959 2.46842,6.68894 2.49496,6.73188 0.0265,0.0429 0.19451,-0.11349 0.37328,-0.34762 0.17877,-0.23412 0.48727,-0.55583 0.68556,-0.7149 z m -2.09522,-11.81308 c 0,-0.0668 -0.60023,-2.95696 -1.33385,-6.42258 l -1.33385,-6.30113 -0.55057,0.0623 c -1.14524,0.12957 -4.65167,1.07385 -4.65167,1.25269 0,0.0738 3.01877,8.40842 3.56483,9.84225 0.0645,0.1695 1.81503,0.95429 2.89628,1.2985 0.53438,0.17011 1.01532,0.32387 1.06876,0.34169 0.21053,0.0702 0.34006,0.0421 0.34007,-0.0737 z m -5.53811,-2.2435 c 0,-0.0506 -3.22202,-8.85296 -3.25231,-8.88517 -0.10295,-0.10945 -4.33134,1.86767 -4.86052,2.2727 -0.18807,0.14394 -0.17401,0.16737 0.43721,0.72814 2.40648,2.20786 4.31045,3.74835 6.23217,5.04241 1.16859,0.78691 1.44345,0.94723 1.44345,0.84192 z"
       id="path215"
       inkscape:connector-curvature="0"
       transform="scale(0.26458333)" />
    <path
       style="fill:#000000;stroke-width:0.09715966"
       d="m 333.89285,199.79005 c -3.83456,-0.38764 -6.6517,-0.95289 -9.71597,-1.94948 -7.86758,-2.55876 -14.73106,-7.19111 -19.55053,-13.19519 -4.41883,-5.50496 -7.10105,-11.87142 -7.96163,-18.89755 -0.24114,-1.9688 -0.24186,-6.47381 -10e-4,-8.45289 0.36793,-3.02752 1.20231,-6.43298 2.25533,-9.20497 1.14165,-3.00529 3.19802,-6.78013 5.12675,-9.41109 2.30458,-3.14367 5.44578,-6.38331 8.31326,-8.5738 l 0.90975,-0.69497 h 23.27446 23.27447 l 0.90508,0.68031 c 3.00045,2.25528 5.98071,5.20244 8.12757,8.03729 3.71638,4.90735 5.96145,10.75301 6.83893,17.80699 0.13955,1.1219 0.17525,2.12118 0.17525,4.90657 0,2.78538 -0.0357,3.78467 -0.17525,4.90656 -1.03608,8.32894 -3.92592,15.06195 -8.88242,20.69501 -5.84839,6.64669 -13.83012,11.17873 -22.4924,12.77123 -2.61833,0.48135 -3.54673,0.56086 -6.87499,0.58878 -1.73672,0.0146 -3.33257,0.009 -3.54632,-0.0128 z m 3.88638,-7.32683 c 4.10372,-0.27501 7.81122,-1.27319 11.59404,-3.12147 1.18867,-0.58078 1.57271,-0.81138 1.53124,-0.91944 -0.0774,-0.20177 -1.634,-2.23046 -2.57473,-3.35566 -3.93457,-4.70608 -7.55555,-7.43219 -10.97105,-8.25968 -1.22513,-0.29682 -2.85426,-0.27773 -4.10897,0.0481 -2.77675,0.72119 -5.18514,2.53082 -9.2041,6.91583 -0.8326,0.90844 -2.09932,2.27475 -2.81491,3.03625 -0.75033,0.79845 -1.28011,1.43923 -1.25152,1.51373 0.0628,0.16357 2.71843,1.48496 4.00735,1.99395 3.16925,1.25154 5.60764,1.80309 9.66337,2.18583 0.76625,0.0723 2.76116,0.0542 4.12928,-0.0375 z m 15.82673,-5.61297 c 2.74082,-1.9214 5.44874,-4.61449 7.44365,-7.40291 5.69876,-7.96551 7.37036,-18.1353 4.52331,-27.51922 -1.57141,-5.1794 -4.42248,-9.79464 -8.39751,-13.5937 -1.21998,-1.16597 -3.08444,-2.70609 -3.27598,-2.70609 -0.26594,0 -2.9522,4.57437 -4.45039,7.57846 -2.41901,4.85047 -3.76416,8.86636 -4.45814,13.30965 -0.28359,1.81571 -0.30693,6.36812 -0.0413,8.06547 0.55477,3.54556 1.55774,6.60897 3.35987,10.26222 1.12335,2.27723 1.47606,2.90701 4.05412,7.23873 1.19665,2.01064 2.17572,3.70269 2.17572,3.76011 0,0.0574 -0.0754,0.14659 -0.16749,0.19815 -0.14481,0.081 -0.46801,-0.40857 -2.38588,-3.61437 -3.17196,-5.30207 -4.31613,-7.46354 -5.48594,-10.36354 -1.61687,-4.00829 -2.26901,-7.27633 -2.26844,-11.36768 2.9e-4,-2.08999 0.0865,-3.17177 0.40647,-5.10089 0.94028,-5.66902 3.6573,-12.14551 8.02017,-19.11743 0.39336,-0.6286 0.71441,-1.17512 0.71345,-1.2145 -0.005,-0.18877 -2.62284,-1.74025 -4.2247,-2.50341 -4.2575,-2.02838 -8.05769,-2.9256 -12.82507,-3.02799 -2.08391,-0.0448 -4.44329,0.0576 -4.58458,0.19887 -0.0607,0.0607 2.70657,13.02995 2.80178,13.13087 0.13365,0.14166 2.49342,0.17932 3.42961,0.0547 1.98417,-0.26404 4.41018,-1.31592 6.32028,-2.74038 1.79676,-1.33992 3.99261,-3.59948 5.62826,-5.79153 0.36883,-0.4943 0.70033,-0.89873 0.73667,-0.89873 0.0363,0 0.14292,0.0849 0.23686,0.18872 0.16473,0.18202 0.15422,0.21046 -0.29615,0.80156 -2.50833,3.29219 -4.90083,5.61895 -7.27724,7.07729 -0.92758,0.56924 -2.2648,1.18544 -3.23824,1.49221 -1.27271,0.40109 -2.32031,0.54482 -3.97085,0.54482 -1.38369,0 -1.49571,0.0132 -1.44705,0.17003 0.0474,0.15279 2.09787,9.8068 2.09787,9.87716 0,0.0161 0.30221,0.0546 0.67159,0.0855 0.97334,0.0816 1.5536,0.36749 2.24414,1.10569 1.34394,1.43668 1.93552,3.46097 1.81238,6.20174 -0.0902,2.00689 -0.52748,3.3557 -1.50587,4.64452 -0.27598,0.36354 -0.50177,0.69575 -0.50177,0.73825 0,0.0425 -0.16396,0.15058 -0.36435,0.24018 -0.20039,0.0896 -0.51738,0.24781 -0.70441,0.35159 -0.47463,0.26335 -1.49044,0.19985 -2.17544,-0.13601 -1.75472,-0.86035 -2.97402,-3.52876 -2.97402,-6.50855 0,-0.91669 0.22691,-2.36674 0.49004,-3.13153 l 0.1794,-0.52145 -2.67623,-7.26299 c -1.47193,-3.99464 -2.74077,-7.44644 -2.81965,-7.67068 -0.12605,-0.35835 -0.25129,-0.47448 -1.03478,-0.95943 -2.40086,-1.48605 -5.17053,-3.66129 -7.51587,-5.90282 l -0.79546,-0.76025 -0.75937,0.50767 c -0.41765,0.27922 -0.77418,0.51956 -0.79229,0.53408 -0.0181,0.0145 0.49159,0.63787 1.13266,1.38522 7.02221,8.18637 10.81189,15.43646 11.58502,22.16343 0.17092,1.48715 0.0701,4.80627 -0.18758,6.17516 -0.87115,4.62797 -3.12779,9.00145 -7.60056,14.73023 -0.60044,0.76905 -1.81801,2.29457 -2.70571,3.39005 -0.88771,1.09547 -1.84501,2.2857 -2.12733,2.64495 l -0.51332,0.65319 1.1804,0.77992 c 0.64922,0.42896 1.21201,0.77992 1.25064,0.77992 0.10999,0 1.9072,-1.86909 4.27764,-4.44871 4.09179,-4.45288 6.30503,-6.14336 9.14087,-6.98178 1.12891,-0.33376 2.82167,-0.41288 4.01386,-0.18761 4.14528,0.78329 8.5639,4.37767 13.65353,11.10661 l 0.60523,0.80016 0.79826,-0.49765 c 0.43905,-0.27371 1.14341,-0.7396 1.56525,-1.03532 z M 319.0558,183.1637 c 4.15491,-5.13679 5.9518,-7.61209 7.44062,-10.24976 1.78003,-3.15362 2.84994,-6.28603 3.18093,-9.31291 0.1413,-1.29223 0.0561,-4.49413 -0.15235,-5.72313 -1.03168,-6.08359 -4.55145,-12.68119 -10.59202,-19.85411 -0.80306,-0.9536 -1.55502,-1.84627 -1.67102,-1.9837 -0.20311,-0.24065 -0.21999,-0.24393 -0.45682,-0.0888 -0.13526,0.0886 -0.6306,0.48245 -1.10075,0.87519 -6.25999,5.22905 -10.14038,12.29173 -11.21913,20.41983 -0.0831,0.62616 -0.12895,2.02518 -0.12895,3.93496 0,2.62544 0.0262,3.13511 0.22958,4.46935 1.20424,7.89928 5.01852,14.64873 11.19888,19.81663 0.44751,0.3742 0.82284,0.68119 0.83406,0.68221 0.0112,0.001 1.10785,-1.3426 2.43697,-2.98581 z m 18.86917,-19.39417 c 0,-0.0887 -0.08,-0.11697 -0.2429,-0.0858 -0.13359,0.0255 -0.2429,0.0851 -0.2429,0.13226 0,0.0472 0.10931,0.0858 0.2429,0.0858 0.14014,0 0.2429,-0.0559 0.2429,-0.13226 z m -0.12795,-0.56607 c -0.031,-0.0775 -0.054,-0.0545 -0.0587,0.0587 -0.004,0.10242 0.0188,0.15981 0.051,0.12752 0.0323,-0.0323 0.0357,-0.11608 0.008,-0.18622 z M 335.78064,161.9 c -0.27306,-0.74262 -0.52032,-1.37207 -0.54947,-1.39879 -0.0866,-0.0794 0.0629,0.91086 0.21465,1.4216 0.14221,0.4787 0.70196,1.45673 0.78576,1.37293 0.025,-0.025 -0.17788,-0.65313 -0.45094,-1.39574 z m 3.81432,0.255 c 0.29041,-0.74209 0.31175,-2.44523 0.0396,-3.15977 -0.39539,-1.03806 -1.09209,-1.741 -1.84695,-1.8635 -0.34,-0.0552 -0.35602,-0.046 -0.30361,0.17393 0.0304,0.1277 0.3179,1.47825 0.6388,3.00123 0.32091,1.52297 0.60805,2.83463 0.63808,2.91479 0.0823,0.21975 0.57944,-0.41597 0.83409,-1.06668 z m -1.99226,0.17402 c -0.031,-0.0775 -0.054,-0.0545 -0.0587,0.0587 -0.004,0.10243 0.0188,0.15981 0.051,0.12753 0.0323,-0.0323 0.0357,-0.11609 0.008,-0.18623 z m -0.83944,-0.86149 c -0.27115,-0.69649 -0.27466,-0.72602 -0.0943,-0.79316 0.10301,-0.0384 0.1873,-0.14509 0.1873,-0.23718 0,-0.15585 -0.008,-0.15619 -0.12145,-0.005 -0.19602,0.26227 -0.32428,0.0668 -0.44524,-0.67845 -0.16475,-1.01502 -0.15213,-1.62006 0.0323,-1.54928 0.0802,0.0308 0.14574,0.0136 0.14574,-0.0382 0,-0.0518 -0.075,-0.0941 -0.16656,-0.0941 -0.15597,0 -0.15575,-0.0108 0.004,-0.17002 0.14874,-0.14871 0.18163,-0.15176 0.26223,-0.0243 0.0753,0.11912 0.0924,0.10877 0.0936,-0.0567 7.8e-4,-0.11133 -0.0261,-0.23003 -0.0599,-0.26377 -0.19888,-0.19887 -0.94522,0.74139 -0.9309,1.17277 0.008,0.25334 0.93704,2.85929 1.18204,3.31707 0.23414,0.43751 0.18683,0.12727 -0.0884,-0.57976 z m 0.74229,0.37569 c -0.031,-0.0775 -0.054,-0.0545 -0.0587,0.0587 -0.004,0.10243 0.0187,0.15981 0.051,0.12753 0.0323,-0.0323 0.0357,-0.11609 0.008,-0.18623 z m -0.15271,-0.37384 c 0.0756,-0.0499 -0.15745,-1.24435 -0.26352,-1.35041 -0.0283,-0.0283 -0.0202,0.18389 0.0179,0.47154 0.0539,0.40656 0.0424,0.50631 -0.0519,0.44802 -0.0943,-0.0583 -0.0975,-0.0305 -0.0145,0.12468 0.0588,0.10981 0.11031,0.30091 0.11453,0.42466 0.005,0.14739 0.0268,0.17473 0.0631,0.0793 0.0305,-0.0802 0.091,-0.16914 0.13433,-0.19774 z m -0.35234,-2.06122 c -0.0369,-0.22711 -0.11095,-0.45665 -0.16452,-0.51009 -0.0917,-0.0914 -0.0511,0.27801 0.0826,0.75299 0.0928,0.32947 0.1482,0.16504 0.0819,-0.2429 z m -0.27127,-1.21265 c -0.0246,-0.0945 -0.0464,-0.0407 -0.0484,0.1196 -0.002,0.16032 0.0182,0.23766 0.0448,0.17188 0.0266,-0.0658 0.0282,-0.19694 0.004,-0.29148 z m -1.51498,-3.24229 0.68048,-0.68999 -1.12402,-5.30315 c -0.61821,-2.91673 -1.13798,-5.3171 -1.15504,-5.33415 -0.0171,-0.0171 -0.48633,-0.15968 -1.04283,-0.31694 -0.5565,-0.15726 -1.44538,-0.46321 -1.97529,-0.6799 -0.5299,-0.21668 -0.97942,-0.37802 -0.99892,-0.35852 -0.0374,0.0374 4.85445,13.37265 4.9055,13.37265 0.0163,0 0.33585,-0.3105 0.71012,-0.69 z m -1.79417,-12.35368 c -0.0329,-0.17367 -0.63767,-3.05932 -1.34392,-6.41254 -1.24576,-5.91482 -1.29072,-6.09677 -1.5065,-6.09677 -0.6147,0 -4.52364,0.97245 -4.84061,1.20423 -0.14293,0.10451 0.0164,0.59728 1.55957,4.82416 0.94532,2.58926 1.7602,4.82279 1.81085,4.9634 0.11274,0.31295 1.25192,0.86761 2.9678,1.44499 1.41603,0.47648 1.42949,0.4772 1.35281,0.0725 z m -5.50255,-2.04749 c 0,-0.0173 -0.67153,-1.86454 -1.4923,-4.105 -0.82076,-2.24046 -1.54612,-4.23922 -1.61191,-4.44168 -0.14232,-0.43799 -0.0488,-0.4536 -1.75378,0.29303 -1.2612,0.55231 -3.40058,1.66489 -3.40058,1.76845 0,0.0847 2.22754,2.09448 3.34439,3.01752 2.0596,1.70217 4.91418,3.7165 4.91418,3.46768 z"
       id="path217"
       inkscape:connector-curvature="0"
       transform="scale(0.26458333)" />
    <path
       style="fill:#000000;stroke-width:0.09715966"
       d="m 333.30989,199.74836 c -11.82268,-1.18816 -22.72515,-7.13842 -29.45295,-16.07457 -3.95325,-5.2509 -6.33566,-11.17354 -7.19124,-17.87738 -0.21591,-1.6917 -0.24829,-6.52991 -0.0543,-8.11283 0.90286,-7.36721 3.41005,-13.63487 7.79259,-19.48052 1.98997,-2.6543 4.90524,-5.67325 7.43361,-7.69796 l 1.36024,-1.08928 23.31251,-0.003 23.31252,-0.003 1.12223,0.85015 c 4.36625,3.30765 8.17402,7.60752 10.50116,11.85829 2.39224,4.36967 3.94135,9.78757 4.37922,15.316 0.16784,2.11909 0.0626,6.86202 -0.19456,8.76536 -0.78649,5.82195 -2.50314,10.91917 -5.14073,15.26432 -1.54518,2.54551 -3.05155,4.4319 -5.45171,6.82701 -6.2574,6.24423 -13.99973,10.05998 -22.88706,11.27971 -1.16967,0.16053 -2.09998,0.20646 -4.71225,0.23265 -1.79016,0.018 -3.64834,-0.007 -4.12928,-0.0552 z m 4.27258,-7.28416 c 3.40794,-0.2174 6.44394,-0.89673 9.62125,-2.15285 1.16389,-0.46013 3.48965,-1.59422 3.63939,-1.77464 0.0822,-0.099 -0.13125,-0.43748 -0.93055,-1.47554 -1.62788,-2.11414 -2.37707,-2.96821 -4.25834,-4.85451 -2.3372,-2.34343 -3.75489,-3.44308 -5.67393,-4.40106 -1.75262,-0.87491 -2.90535,-1.17166 -4.56127,-1.1742 -3.61913,-0.006 -6.35,1.69524 -11.22947,6.99381 -0.86119,0.93516 -2.1673,2.34621 -2.90246,3.13566 -0.73516,0.78945 -1.33665,1.47853 -1.33665,1.53127 0,0.13325 3.53917,1.8527 4.66366,2.26577 2.35748,0.866 4.89309,1.47412 7.33555,1.7593 2.24798,0.26247 3.36531,0.29163 5.63282,0.14699 z m 14.67884,-4.72495 c 7.28533,-4.60697 12.37416,-12.03179 14.07364,-20.53403 0.57917,-2.89751 0.74068,-6.72322 0.40403,-9.57022 -1.00828,-8.5267 -5.07281,-15.85531 -11.77697,-21.23461 -0.52641,-0.42238 -1.00161,-0.76888 -1.056,-0.77001 -0.25153,-0.005 -2.77668,4.27681 -4.32465,7.33351 -3.50991,6.93082 -5.00406,12.72619 -4.82202,18.70323 0.11488,3.77181 0.88145,7.11044 2.50453,10.90791 1.14881,2.68784 2.23781,4.7116 5.26649,9.7871 1.06823,1.79017 1.96137,3.32762 1.98474,3.41656 0.0238,0.0907 -0.0363,0.20388 -0.13702,0.25778 -0.19532,0.10453 -0.2573,0.008 -3.3394,-5.18031 -3.66614,-6.17191 -5.37763,-10.10154 -6.26283,-14.37963 -0.72597,-3.50853 -0.73985,-7.8277 -0.037,-11.51342 1.05984,-5.55774 3.61207,-11.54893 7.80196,-18.3146 l 0.84237,-1.36024 -0.29757,-0.25095 c -0.43834,-0.36968 -2.21697,-1.41252 -3.55151,-2.08231 -4.36634,-2.19142 -8.98253,-3.25616 -14.08671,-3.24914 -1.42521,0.002 -3.61308,0.12725 -3.69758,0.21175 -0.0418,0.0418 2.44998,11.95199 2.68123,12.81561 0.11665,0.43562 0.26419,0.47356 1.84163,0.47356 4.25124,0 8.10936,-2.13711 12.05154,-6.67565 0.47382,-0.5455 1.17507,-1.40901 1.55834,-1.91891 0.38326,-0.5099 0.72846,-0.92709 0.76711,-0.92709 0.0386,0 0.14696,0.0848 0.24071,0.18834 0.16475,0.18205 0.14122,0.22666 -0.70469,1.33595 -3.15884,4.14231 -6.47921,6.81818 -9.86475,7.94996 -1.40257,0.46887 -2.46763,0.63035 -4.15757,0.63035 -1.31961,0 -1.44467,0.0149 -1.44467,0.17271 0,0.095 0.45899,2.33573 1.01998,4.97943 0.56098,2.6437 1.02006,4.83318 1.02017,4.86551 10e-5,0.0323 0.30242,0.0841 0.6718,0.11508 0.98002,0.0822 1.55267,0.3665 2.25918,1.12176 0.42494,0.45427 0.71816,0.89503 1.01001,1.51827 0.66358,1.417 0.76402,1.95318 0.76516,4.08445 8.7e-4,1.62041 -0.0255,1.93851 -0.21569,2.60276 -0.29931,1.0453 -0.68364,1.84433 -1.27066,2.64178 -0.27452,0.37292 -0.49912,0.70175 -0.49912,0.73074 0,0.029 -0.32895,0.22197 -0.73101,0.42884 -0.69626,0.35826 -0.76184,0.37326 -1.3798,0.31556 -0.83728,-0.0782 -1.49399,-0.4031 -2.13424,-1.05592 -0.92386,-0.94201 -1.53023,-2.24588 -1.83227,-3.93993 -0.2618,-1.46832 -0.11702,-3.58954 0.33447,-4.90038 l 0.19054,-0.55324 -2.82677,-7.67834 -2.82677,-7.67835 -1.22254,-0.771 c -2.21873,-1.39925 -4.82594,-3.45552 -7.0168,-5.53407 l -0.93628,-0.88827 -0.73973,0.4829 c -0.40685,0.2656 -0.73973,0.52675 -0.73973,0.58035 0,0.0536 0.54901,0.7431 1.22001,1.53223 6.67065,7.84493 10.36911,14.76858 11.30903,21.17092 0.24579,1.67424 0.26913,4.4451 0.0514,6.10583 -0.30016,2.28978 -1.01413,4.57783 -2.19881,7.04657 -1.61878,3.37332 -3.34455,5.8784 -8.23066,11.94742 -1.3968,1.73497 -2.53964,3.20583 -2.53964,3.26859 0,0.0891 1.46406,1.10499 2.21916,1.53991 0.17481,0.10069 0.40608,-0.12956 3.7042,-3.68795 4.15312,-4.48087 5.87037,-5.97019 8.12804,-7.0492 2.34278,-1.11969 4.89108,-1.26561 7.25688,-0.41552 3.61084,1.29745 7.74591,4.90498 11.78305,10.2798 0.46264,0.61594 0.89285,1.11989 0.95602,1.11989 0.0632,0 0.50597,-0.24733 0.984,-0.54962 z m -32.68298,-5.23138 c 4.73301,-5.91275 6.23604,-8.10225 7.85083,-11.43642 1.93318,-3.99158 2.61512,-7.62312 2.23591,-11.90701 -0.5631,-6.36137 -4.58277,-14.05084 -11.568,-22.12916 -1.18199,-1.36696 -1.03082,-1.3045 -1.75538,-0.72526 -6.93029,5.54038 -11.18149,13.36158 -11.93442,21.95651 -0.12525,1.42984 -0.1257,4.29454 -8.9e-4,5.73242 0.51953,5.98536 2.91257,11.95176 6.70273,16.71147 1.02885,1.29203 2.92986,3.24154 4.36967,4.48116 l 1.11502,0.95999 0.209,-0.21872 c 0.11494,-0.12029 1.36393,-1.66153 2.77553,-3.42498 z m 18.34664,-18.70324 c 0,-0.0534 -0.1093,-0.0971 -0.2429,-0.0971 -0.13359,0 -0.2429,0.0437 -0.2429,0.0971 0,0.0534 0.10931,0.0972 0.2429,0.0972 0.1336,0 0.2429,-0.0437 0.2429,-0.0972 z m 1.50558,-1.30278 c 0.34781,-0.71183 0.4979,-1.9052 0.35129,-2.79299 -0.13749,-0.8325 -0.58577,-1.73012 -1.05876,-2.11999 -0.29977,-0.2471 -1.13613,-0.57178 -1.22967,-0.47737 -0.0345,0.0348 1.15917,5.79644 1.26359,6.09911 0.072,0.20856 0.38765,-0.12364 0.67355,-0.70876 z m -3.63723,-0.55063 c -0.49971,-1.36357 -0.61503,-1.56308 -0.52928,-0.91564 0.0925,0.69874 0.27096,1.24396 0.57917,1.76987 0.41129,0.70182 0.39062,0.34779 -0.0499,-0.85423 z m 1.80938,0.3778 c -0.031,-0.0775 -0.054,-0.0545 -0.0587,0.0587 -0.004,0.10243 0.0188,0.15981 0.051,0.12753 0.0323,-0.0323 0.0357,-0.11609 0.008,-0.18623 z m -0.83944,-0.86149 c -0.27115,-0.69649 -0.27466,-0.72602 -0.0943,-0.79316 0.10301,-0.0384 0.1873,-0.14509 0.1873,-0.23718 0,-0.15585 -0.008,-0.15619 -0.12145,-0.005 -0.19602,0.26227 -0.32428,0.0668 -0.44524,-0.67845 -0.16475,-1.01502 -0.15213,-1.62006 0.0323,-1.54928 0.0802,0.0308 0.14574,0.0136 0.14574,-0.0382 0,-0.0518 -0.075,-0.0941 -0.16656,-0.0941 -0.15597,0 -0.15575,-0.0108 0.004,-0.17002 0.14874,-0.14871 0.18163,-0.15176 0.26223,-0.0243 0.0745,0.11779 0.0924,0.10492 0.0936,-0.0671 0.003,-0.4337 -0.24859,-0.33737 -0.70687,0.27063 -0.14478,0.19207 -0.26295,0.41068 -0.2626,0.48579 3.9e-4,0.0751 0.0875,0.005 0.19368,-0.15491 l 0.19304,-0.29148 -0.007,0.7287 -0.007,0.7287 -0.15426,-0.43722 c -0.0848,-0.24047 -0.17101,-0.38698 -0.19147,-0.32558 -0.0368,0.11031 0.91797,2.82858 1.13767,3.2391 0.23071,0.43108 0.18103,0.11506 -0.0923,-0.58696 z m 0.53202,-0.55068 c -0.10214,-0.68107 -0.24009,-0.94119 -0.17373,-0.32756 0.0365,0.33776 0.0223,0.50395 -0.0399,0.4655 -0.0614,-0.0379 -0.0587,0.0616 0.007,0.27244 0.14647,0.46797 0.29412,0.17445 0.20642,-0.41038 z m -0.29007,-1.46011 c -0.0368,-0.20039 -0.11037,-0.40807 -0.16343,-0.46151 -0.0903,-0.0909 -0.0637,0.13086 0.0786,0.65583 0.0867,0.31987 0.15189,0.17059 0.0848,-0.19432 z m -0.27694,-1.20842 c -0.031,-0.0775 -0.054,-0.0545 -0.0587,0.0587 -0.004,0.10242 0.0187,0.1598 0.051,0.12752 0.0323,-0.0323 0.0357,-0.11609 0.008,-0.18622 z m -1.86897,-8.81243 c -0.56449,-2.65116 -1.07251,-5.04465 -1.12895,-5.31886 l -0.1026,-0.49858 -1.04427,-0.3009 c -0.57435,-0.16549 -1.47346,-0.4762 -1.99804,-0.69046 -0.52457,-0.21426 -0.96945,-0.37388 -0.98862,-0.35471 -0.0192,0.0192 0.01,0.13888 0.0639,0.26602 0.0543,0.12714 1.10928,2.98564 2.34444,6.35223 1.23516,3.36658 2.30564,6.26454 2.37884,6.43992 l 0.1331,0.31886 0.6843,-0.69661 0.68429,-0.69662 z m -1.40367,-6.6141 c 0,-0.16585 -2.52999,-12.08891 -2.63454,-12.41579 -0.0673,-0.21052 -0.16274,-0.31577 -0.28624,-0.31577 -0.48035,0 -2.85294,0.57591 -4.68197,1.13647 -0.0935,0.0287 -0.17002,0.13194 -0.17002,0.2295 0,0.30151 3.3327,9.53617 3.53663,9.79975 0.16315,0.21087 1.62842,0.86207 2.8759,1.27813 1.19596,0.39888 1.36024,0.43362 1.36024,0.28771 z m -7.13886,-6.65109 c -0.87555,-2.39627 -1.62819,-4.39314 -1.67255,-4.4375 -0.12537,-0.12537 -3.51078,1.41262 -4.69602,2.13342 l -0.30643,0.18635 0.713,0.6784 c 1.60556,1.52764 3.4987,3.10226 5.24113,4.35932 0.9428,0.68017 2.23945,1.51019 2.2862,1.46344 0.0146,-0.0146 -0.68978,-1.98716 -1.56533,-4.38343 z"
       id="path219"
       inkscape:connector-curvature="0"
       transform="scale(0.26458333)" />
    <path
       style="fill:#000000;stroke-width:0.09715966"
       d="m 333.30989,199.74836 c -11.82268,-1.18816 -22.72515,-7.13842 -29.45295,-16.07457 -3.95325,-5.2509 -6.33566,-11.17354 -7.19124,-17.87738 -0.21591,-1.6917 -0.24829,-6.52991 -0.0543,-8.11283 0.90286,-7.36721 3.41005,-13.63487 7.79259,-19.48052 1.98997,-2.6543 4.90524,-5.67325 7.43361,-7.69796 l 1.36024,-1.08928 23.31251,-0.003 23.31252,-0.003 1.12223,0.85015 c 4.36625,3.30765 8.17402,7.60752 10.50116,11.85829 2.39224,4.36967 3.94135,9.78757 4.37922,15.316 0.16784,2.11909 0.0626,6.86202 -0.19456,8.76536 -0.78649,5.82195 -2.50314,10.91917 -5.14073,15.26432 -1.54518,2.54551 -3.05155,4.4319 -5.45171,6.82701 -6.2574,6.24423 -13.99973,10.05998 -22.88706,11.27971 -1.16967,0.16053 -2.09998,0.20646 -4.71225,0.23265 -1.79016,0.018 -3.64834,-0.007 -4.12928,-0.0552 z m 4.27258,-7.28416 c 3.40794,-0.2174 6.44394,-0.89673 9.62125,-2.15285 1.16389,-0.46013 3.48965,-1.59422 3.63939,-1.77464 0.0822,-0.099 -0.13125,-0.43748 -0.93055,-1.47554 -1.62788,-2.11414 -2.37707,-2.96821 -4.25834,-4.85451 -2.3372,-2.34343 -3.75489,-3.44308 -5.67393,-4.40106 -1.75262,-0.87491 -2.90535,-1.17166 -4.56127,-1.1742 -3.61913,-0.006 -6.35,1.69524 -11.22947,6.99381 -0.86119,0.93516 -2.1673,2.34621 -2.90246,3.13566 -0.73516,0.78945 -1.33665,1.47853 -1.33665,1.53127 0,0.13325 3.53917,1.8527 4.66366,2.26577 2.35748,0.866 4.89309,1.47412 7.33555,1.7593 2.24798,0.26247 3.36531,0.29163 5.63282,0.14699 z m 14.67884,-4.72495 c 7.28533,-4.60697 12.37416,-12.03179 14.07364,-20.53403 0.57917,-2.89751 0.74068,-6.72322 0.40403,-9.57022 -1.00828,-8.5267 -5.07281,-15.85531 -11.77697,-21.23461 -0.52641,-0.42238 -1.00161,-0.76888 -1.056,-0.77001 -0.25153,-0.005 -2.77668,4.27681 -4.32465,7.33351 -3.50991,6.93082 -5.00406,12.72619 -4.82202,18.70323 0.11488,3.77181 0.88145,7.11044 2.50453,10.90791 1.14881,2.68784 2.23781,4.7116 5.26649,9.7871 1.06823,1.79017 1.96137,3.32762 1.98474,3.41656 0.0238,0.0907 -0.0363,0.20388 -0.13702,0.25778 -0.19532,0.10453 -0.2573,0.008 -3.3394,-5.18031 -3.66614,-6.17191 -5.37763,-10.10154 -6.26283,-14.37963 -0.72597,-3.50853 -0.73985,-7.8277 -0.037,-11.51342 1.05984,-5.55774 3.61207,-11.54893 7.80196,-18.3146 l 0.84237,-1.36024 -0.29757,-0.25095 c -0.43834,-0.36968 -2.21697,-1.41252 -3.55151,-2.08231 -4.36634,-2.19142 -8.98253,-3.25616 -14.08671,-3.24914 -1.42521,0.002 -3.61308,0.12725 -3.69758,0.21175 -0.0418,0.0418 2.44998,11.95199 2.68123,12.81561 0.11665,0.43562 0.26419,0.47356 1.84163,0.47356 4.25124,0 8.10936,-2.13711 12.05154,-6.67565 0.47382,-0.5455 1.17507,-1.40901 1.55834,-1.91891 0.38326,-0.5099 0.72846,-0.92709 0.76711,-0.92709 0.0386,0 0.14696,0.0848 0.24071,0.18834 0.16475,0.18205 0.14122,0.22666 -0.70469,1.33595 -3.15884,4.14231 -6.47921,6.81818 -9.86475,7.94996 -1.40257,0.46887 -2.46763,0.63035 -4.15757,0.63035 -1.31961,0 -1.44467,0.0149 -1.44467,0.17271 0,0.095 0.45899,2.33573 1.01998,4.97943 0.56098,2.6437 1.02006,4.83318 1.02017,4.86551 10e-5,0.0323 0.30242,0.0841 0.6718,0.11508 0.98002,0.0822 1.55267,0.3665 2.25918,1.12176 0.42494,0.45427 0.71816,0.89503 1.01001,1.51827 0.66358,1.417 0.76402,1.95318 0.76516,4.08445 8.7e-4,1.62041 -0.0255,1.93851 -0.21569,2.60276 -0.29931,1.0453 -0.68364,1.84433 -1.27066,2.64178 -0.27452,0.37292 -0.49912,0.70175 -0.49912,0.73074 0,0.029 -0.32895,0.22197 -0.73101,0.42884 -0.69626,0.35826 -0.76184,0.37326 -1.3798,0.31556 -0.83728,-0.0782 -1.49399,-0.4031 -2.13424,-1.05592 -0.92386,-0.94201 -1.53023,-2.24588 -1.83227,-3.93993 -0.2618,-1.46832 -0.11702,-3.58954 0.33447,-4.90038 l 0.19054,-0.55324 -2.82677,-7.67834 -2.82677,-7.67835 -1.22254,-0.771 c -2.21873,-1.39925 -4.82594,-3.45552 -7.0168,-5.53407 l -0.93628,-0.88827 -0.73973,0.4829 c -0.40685,0.2656 -0.73973,0.52675 -0.73973,0.58035 0,0.0536 0.54901,0.7431 1.22001,1.53223 6.67065,7.84493 10.36911,14.76858 11.30903,21.17092 0.24579,1.67424 0.26913,4.4451 0.0514,6.10583 -0.30016,2.28978 -1.01413,4.57783 -2.19881,7.04657 -1.61878,3.37332 -3.34455,5.8784 -8.23066,11.94742 -1.3968,1.73497 -2.53964,3.20583 -2.53964,3.26859 0,0.0891 1.46406,1.10499 2.21916,1.53991 0.17481,0.10069 0.40608,-0.12956 3.7042,-3.68795 4.15312,-4.48087 5.87037,-5.97019 8.12804,-7.0492 2.34278,-1.11969 4.89108,-1.26561 7.25688,-0.41552 3.61084,1.29745 7.74591,4.90498 11.78305,10.2798 0.46264,0.61594 0.89285,1.11989 0.95602,1.11989 0.0632,0 0.50597,-0.24733 0.984,-0.54962 z m -32.68298,-5.23138 c 4.73301,-5.91275 6.23604,-8.10225 7.85083,-11.43642 1.93318,-3.99158 2.61512,-7.62312 2.23591,-11.90701 -0.5631,-6.36137 -4.58277,-14.05084 -11.568,-22.12916 -1.18199,-1.36696 -1.03082,-1.3045 -1.75538,-0.72526 -6.93029,5.54038 -11.18149,13.36158 -11.93442,21.95651 -0.12525,1.42984 -0.1257,4.29454 -8.9e-4,5.73242 0.51953,5.98536 2.91257,11.95176 6.70273,16.71147 1.02885,1.29203 2.92986,3.24154 4.36967,4.48116 l 1.11502,0.95999 0.209,-0.21872 c 0.11494,-0.12029 1.36393,-1.66153 2.77553,-3.42498 z m 18.34664,-18.70324 c 0,-0.0534 -0.1093,-0.0971 -0.2429,-0.0971 -0.13359,0 -0.2429,0.0437 -0.2429,0.0971 0,0.0534 0.10931,0.0972 0.2429,0.0972 0.1336,0 0.2429,-0.0437 0.2429,-0.0972 z m 1.50558,-1.30278 c 0.34781,-0.71183 0.4979,-1.9052 0.35129,-2.79299 -0.13749,-0.8325 -0.58577,-1.73012 -1.05876,-2.11999 -0.29977,-0.2471 -1.13613,-0.57178 -1.22967,-0.47737 -0.0345,0.0348 1.15917,5.79644 1.26359,6.09911 0.072,0.20856 0.38765,-0.12364 0.67355,-0.70876 z m -3.63723,-0.55063 c -0.49971,-1.36357 -0.61503,-1.56308 -0.52928,-0.91564 0.0925,0.69874 0.27096,1.24396 0.57917,1.76987 0.41129,0.70182 0.39062,0.34779 -0.0499,-0.85423 z m 1.80938,0.3778 c -0.031,-0.0775 -0.054,-0.0545 -0.0587,0.0587 -0.004,0.10243 0.0188,0.15981 0.051,0.12753 0.0323,-0.0323 0.0357,-0.11609 0.008,-0.18623 z m -0.83944,-0.86149 c -0.27115,-0.69649 -0.27466,-0.72602 -0.0943,-0.79316 0.10301,-0.0384 0.1873,-0.14509 0.1873,-0.23718 0,-0.15585 -0.008,-0.15619 -0.12145,-0.005 -0.19602,0.26227 -0.32428,0.0668 -0.44524,-0.67845 -0.16475,-1.01502 -0.15213,-1.62006 0.0323,-1.54928 0.0802,0.0308 0.14574,0.0136 0.14574,-0.0382 0,-0.0518 -0.075,-0.0941 -0.16656,-0.0941 -0.15597,0 -0.15575,-0.0108 0.004,-0.17002 0.14874,-0.14871 0.18163,-0.15176 0.26223,-0.0243 0.0745,0.11779 0.0924,0.10492 0.0936,-0.0671 0.003,-0.4337 -0.24859,-0.33737 -0.70687,0.27063 -0.14478,0.19207 -0.26295,0.41068 -0.2626,0.48579 3.9e-4,0.0751 0.0875,0.005 0.19368,-0.15491 l 0.19304,-0.29148 -0.007,0.7287 -0.007,0.7287 -0.15426,-0.43722 c -0.0848,-0.24047 -0.17101,-0.38698 -0.19147,-0.32558 -0.0368,0.11031 0.91797,2.82858 1.13767,3.2391 0.23071,0.43108 0.18103,0.11506 -0.0923,-0.58696 z m 0.53202,-0.55068 c -0.10214,-0.68107 -0.24009,-0.94119 -0.17373,-0.32756 0.0365,0.33776 0.0223,0.50395 -0.0399,0.4655 -0.0614,-0.0379 -0.0587,0.0616 0.007,0.27244 0.14647,0.46797 0.29412,0.17445 0.20642,-0.41038 z m -0.29007,-1.46011 c -0.0368,-0.20039 -0.11037,-0.40807 -0.16343,-0.46151 -0.0903,-0.0909 -0.0637,0.13086 0.0786,0.65583 0.0867,0.31987 0.15189,0.17059 0.0848,-0.19432 z m -0.27694,-1.20842 c -0.031,-0.0775 -0.054,-0.0545 -0.0587,0.0587 -0.004,0.10242 0.0187,0.1598 0.051,0.12752 0.0323,-0.0323 0.0357,-0.11609 0.008,-0.18622 z m -1.86897,-8.81243 c -0.56449,-2.65116 -1.07251,-5.04465 -1.12895,-5.31886 l -0.1026,-0.49858 -1.04427,-0.3009 c -0.57435,-0.16549 -1.47346,-0.4762 -1.99804,-0.69046 -0.52457,-0.21426 -0.96945,-0.37388 -0.98862,-0.35471 -0.0192,0.0192 0.01,0.13888 0.0639,0.26602 0.0543,0.12714 1.10928,2.98564 2.34444,6.35223 1.23516,3.36658 2.30564,6.26454 2.37884,6.43992 l 0.1331,0.31886 0.6843,-0.69661 0.68429,-0.69662 z m -1.40367,-6.6141 c 0,-0.16585 -2.52999,-12.08891 -2.63454,-12.41579 -0.0673,-0.21052 -0.16274,-0.31577 -0.28624,-0.31577 -0.48035,0 -2.85294,0.57591 -4.68197,1.13647 -0.0935,0.0287 -0.17002,0.13194 -0.17002,0.2295 0,0.30151 3.3327,9.53617 3.53663,9.79975 0.16315,0.21087 1.62842,0.86207 2.8759,1.27813 1.19596,0.39888 1.36024,0.43362 1.36024,0.28771 z m -7.13886,-6.65109 c -0.87555,-2.39627 -1.62819,-4.39314 -1.67255,-4.4375 -0.12537,-0.12537 -3.51078,1.41262 -4.69602,2.13342 l -0.30643,0.18635 0.713,0.6784 c 1.60556,1.52764 3.4987,3.10226 5.24113,4.35932 0.9428,0.68017 2.23945,1.51019 2.2862,1.46344 0.0146,-0.0146 -0.68978,-1.98716 -1.56533,-4.38343 z"
       id="path221"
       inkscape:connector-curvature="0"
       transform="scale(0.26458333)" />
    <path
       style="fill:#000000;stroke-width:0.09715966"
       d="m 334.44442,155.34328 c -0.048,-0.12894 -0.31192,-0.83636 -0.58657,-1.57204 -0.27466,-0.73568 -0.49808,-1.39151 -0.4965,-1.45739 0.002,-0.0659 0.25779,0.40902 0.56933,1.05536 0.5636,1.16924 0.86052,1.5331 1.16353,1.42584 0.0963,-0.0341 0.0444,0.074 -0.13185,0.27452 -0.1599,0.18191 -0.32224,0.37067 -0.36074,0.41945 -0.0385,0.0488 -0.10925,-0.0168 -0.1572,-0.14574 z"
       id="path223"
       inkscape:connector-curvature="0"
       transform="scale(0.26458333)" />
    <path
       style="fill:#000000;stroke-width:0.09715966"
       d="m 333.21273,199.74749 c -8.38786,-0.85039 -16.25402,-4.06908 -22.8811,-9.36255 -1.55908,-1.24533 -4.44554,-4.13179 -5.69101,-5.69098 -4.53679,-5.67959 -7.12311,-11.87855 -8.0263,-19.23761 -0.1677,-1.36644 -0.16917,-6.51517 -0.002,-7.86993 0.98551,-7.9982 4.04236,-15.02267 9.23842,-21.22939 1.65039,-1.97141 4.64439,-4.84146 6.77043,-6.49016 l 0.589,-0.45676 h 23.32861 23.3286 l 1.14958,0.88859 c 4.25353,3.28784 7.63405,7.0285 10.027,11.09523 2.33741,3.97234 3.92727,8.90115 4.64333,14.39503 0.22198,1.70308 0.2564,7.88758 0.0535,9.61881 -0.66134,5.64387 -2.31623,10.94561 -4.76141,15.25407 -2.76171,4.86618 -7.20761,9.50398 -12.28319,12.81337 -5.04422,3.28893 -10.60033,5.31897 -16.81082,6.14217 -1.39614,0.18506 -7.26232,0.27306 -8.67243,0.13011 z m 4.03213,-7.28121 c 3.41471,-0.20422 6.14417,-0.75862 9.18158,-1.86493 1.46265,-0.53274 4.42077,-1.97021 4.42077,-2.14823 0,-0.16977 -1.32568,-1.93191 -2.60878,-3.46768 -1.14315,-1.36826 -3.96277,-4.20434 -5.01826,-5.04755 -1.77874,-1.42101 -3.6464,-2.46242 -5.34378,-2.97969 -0.8021,-0.24443 -1.00705,-0.26648 -2.47757,-0.26648 -1.46894,0 -1.67573,0.0222 -2.47044,0.26502 -2.53161,0.77358 -4.93829,2.58614 -8.41851,6.34032 -3.87476,4.17977 -4.55943,4.93155 -4.55943,5.00625 0,0.13761 3.48979,1.79076 4.85798,2.30128 2.26764,0.84612 5.25063,1.52934 7.67561,1.758 2.33419,0.22009 2.68629,0.22776 4.76083,0.10369 z m 15.4744,-5.04743 c 0.72223,-0.47852 1.76604,-1.23058 2.31957,-1.67125 1.28242,-1.02096 3.56342,-3.25214 4.58669,-4.48651 3.77496,-4.55379 6.19737,-10.06258 7.01399,-15.95048 0.24846,-1.79141 0.30121,-5.7665 0.0999,-7.52987 -0.44186,-3.87089 -1.4776,-7.38775 -3.17616,-10.78473 -1.97416,-3.94814 -4.5799,-7.20918 -8.1779,-10.23451 -1.12648,-0.94719 -1.43986,-1.148 -1.5931,-1.02082 -0.30172,0.2504 -2.31432,3.63442 -3.57013,6.00286 -5.6354,10.62832 -6.88596,19.53225 -3.95819,28.18215 1.16654,3.44649 2.45383,6.00079 6.20226,12.30684 1.10158,1.85322 2.02279,3.44563 2.04712,3.53868 0.0261,0.1 -0.0314,0.20968 -0.14068,0.26816 -0.16696,0.0894 -0.38886,-0.24245 -2.28488,-3.41656 -2.35187,-3.93727 -3.16201,-5.36768 -4.08217,-7.2076 -2.08189,-4.16289 -3.1404,-7.49128 -3.62769,-11.40696 -0.19949,-1.60302 -0.20062,-4.97703 -0.002,-6.66473 0.73858,-6.28282 3.39688,-13.02687 8.15736,-20.69501 l 0.84445,-1.36024 -0.26927,-0.22396 c -0.43666,-0.36321 -2.26425,-1.42788 -3.59723,-2.0956 -4.69881,-2.35373 -9.67295,-3.41534 -15.13236,-3.22966 -2.27597,0.0774 -2.57474,0.11998 -2.57474,0.3669 0,0.1867 0.81073,4.12544 1.99873,9.7104 0.35688,1.67771 0.70946,3.11487 0.78352,3.1937 0.0969,0.10318 0.41971,0.15388 1.15227,0.18099 3.12746,0.11578 6.0129,-0.89019 8.89209,-3.10009 1.25663,-0.96452 3.42829,-3.17513 4.66213,-4.74576 0.5611,-0.71425 1.09403,-1.39088 1.18429,-1.50363 l 0.16411,-0.205 0.21748,0.21426 0.21748,0.21426 -0.69096,0.90728 c -3.30201,4.3358 -6.6218,7.03628 -10.06496,8.18731 -1.38696,0.46366 -2.47049,0.63007 -4.1024,0.63007 -0.80328,0 -1.41521,0.0402 -1.44921,0.0952 -0.0539,0.0872 1.92794,9.73227 2.03553,9.90636 0.0258,0.0418 0.32143,0.098 0.65687,0.12495 1.37655,0.1105 2.45864,0.98892 3.23367,2.62501 0.5692,1.20161 0.72533,1.89442 0.79383,3.5227 0.11254,2.67509 -0.3199,4.25056 -1.67021,6.08481 -0.34189,0.46443 -0.57093,0.65893 -1.09014,0.92574 -0.61152,0.31423 -0.704,0.33425 -1.32732,0.28727 -0.91676,-0.0691 -1.54844,-0.3959 -2.28296,-1.18111 -1.09,-1.16521 -1.71782,-2.88483 -1.82522,-4.99938 -0.0658,-1.29527 0.0719,-2.52311 0.39827,-3.55078 l 0.2244,-0.70666 -2.78476,-7.56457 c -1.53163,-4.16051 -2.81923,-7.62032 -2.86135,-7.68847 -0.0421,-0.0681 -0.70664,-0.53569 -1.47672,-1.03898 -2.30208,-1.50455 -4.628,-3.34506 -6.61574,-5.23508 -0.54048,-0.5139 -1.03161,-0.93436 -1.0914,-0.93436 -0.13541,0 -1.46663,0.87885 -1.46663,0.96824 0,0.0359 0.42209,0.56509 0.93798,1.17595 1.45507,1.72295 2.72862,3.32071 3.78944,4.75414 4.5224,6.11087 7.16219,11.85264 7.86049,17.09723 0.18164,1.36418 0.17842,4.36359 -0.006,5.77187 -0.57714,4.40271 -2.64941,8.83929 -6.60984,14.15124 -0.57667,0.77347 -1.99533,2.5868 -3.15258,4.02962 -2.84048,3.54143 -3.2168,4.03633 -3.15065,4.14336 0.0312,0.0505 0.54108,0.41547 1.13304,0.81103 0.82835,0.55352 1.11456,0.69871 1.24243,0.63028 0.0914,-0.0489 1.01328,-0.99668 2.04867,-2.10616 1.0354,-1.10948 2.48089,-2.65606 3.21221,-3.43685 3.91385,-4.17859 6.80854,-5.94244 9.98943,-6.08697 1.80859,-0.0822 3.27607,0.2468 5.0523,1.13263 2.02377,1.00928 3.54212,2.17478 5.88503,4.51739 1.80289,1.80266 2.6292,2.74933 4.34862,4.98203 0.54356,0.70582 1.03753,1.28514 1.09771,1.28737 0.0602,0.002 0.70034,-0.38746 1.42257,-0.86597 z m -33.18536,-4.88669 c 3.18949,-3.98432 4.23031,-5.36476 5.51254,-7.31127 3.65846,-5.55375 5.07764,-10.37938 4.62897,-15.73986 -0.54921,-6.56159 -4.4078,-14.07165 -11.44371,-22.27312 -0.60777,-0.70845 -1.16637,-1.2881 -1.24134,-1.2881 -0.17874,0 -1.32203,0.91565 -2.49688,1.99973 -4.77597,4.40698 -8.06191,10.06948 -9.44444,16.27517 -0.83269,3.73767 -0.9661,8.38634 -0.34549,12.03892 1.15796,6.81515 4.38361,12.91266 9.32995,17.63655 1.06944,1.02134 2.4399,2.18399 2.57437,2.18401 0.0586,0 1.37535,-1.58491 2.92603,-3.52203 z m 18.34249,-18.72753 c 0.033,-0.0534 -0.03,-0.0971 -0.14,-0.0971 -0.11003,0 -0.20006,0.0437 -0.20006,0.0971 0,0.0534 0.063,0.0972 0.14001,0.0972 0.077,0 0.16703,-0.0437 0.20005,-0.0972 z m 1.48201,-1.2701 c 0.93834,-1.85387 0.40634,-4.44969 -1.06187,-5.18133 -0.60032,-0.29915 -0.7602,-0.31469 -0.7602,-0.0739 0,0.1832 1.12814,5.59545 1.215,5.82898 0.0899,0.24172 0.29005,0.0526 0.60707,-0.57378 z m -3.57676,-0.58851 c -0.57187,-1.56602 -0.73587,-1.61599 -0.31941,-0.0973 0.14117,0.51479 0.58733,1.33759 0.67678,1.24813 0.0253,-0.0253 -0.13549,-0.54319 -0.35737,-1.15081 z m 1.02674,-0.29916 c -0.32219,-0.79337 -0.34108,-0.9286 -0.13715,-0.98193 0.10174,-0.0266 0.18499,-0.1264 0.18499,-0.22178 0,-0.16061 -0.009,-0.16142 -0.12145,-0.0109 -0.19292,0.25812 -0.3297,0.0693 -0.4484,-0.61911 -0.14964,-0.86781 -0.14437,-1.64334 0.0112,-1.64524 0.0935,-0.001 0.0925,-0.0199 -0.005,-0.0814 -0.10107,-0.0641 -0.0971,-0.10398 0.02,-0.2012 0.0803,-0.0667 0.19172,-0.093 0.24749,-0.0585 0.0558,0.0345 0.10142,0.0189 0.10142,-0.0345 0,-0.38741 -0.57087,-0.032 -0.83989,0.52291 l -0.14132,0.29148 0.19913,-0.22937 0.19912,-0.22937 -0.004,0.71517 c -0.004,0.68463 -0.0101,0.70272 -0.13785,0.42369 -0.2994,-0.65387 -0.11673,-0.0104 0.38547,1.3578 0.29372,0.80022 0.53404,1.47427 0.53404,1.49787 0,0.0236 0.0273,0.0156 0.0607,-0.0178 0.0334,-0.0334 -0.0155,-0.24837 -0.10858,-0.4777 z m 0.47509,-0.7864 -0.0739,-0.40783 -0.0666,0.37896 c -0.0366,0.20843 -0.0442,0.46482 -0.0167,0.56975 0.0977,0.37347 0.2364,-0.10386 0.15721,-0.54088 z m -0.29366,-1.41587 c -0.0341,-0.1707 -0.0823,-0.29011 -0.10708,-0.26536 -0.0247,0.0248 -0.0148,0.18242 0.0221,0.35038 0.0875,0.39846 0.16601,0.31997 0.085,-0.085 z m -1.76512,-4.55435 0.64652,-0.65583 -1.11734,-5.24662 c -0.61454,-2.88565 -1.14943,-5.27954 -1.18863,-5.31976 -0.0392,-0.0402 -0.46247,-0.18595 -0.94059,-0.32383 -0.47813,-0.13787 -1.32032,-0.42638 -1.87155,-0.64112 -0.55122,-0.21473 -1.0277,-0.36495 -1.05884,-0.33382 -0.0311,0.0311 0.85302,2.53012 1.96479,5.55331 1.29443,3.51989 2.05031,5.45109 2.10182,5.36989 0.0442,-0.0697 0.0811,-0.0805 0.0819,-0.0239 7.8e-4,0.0566 0.0679,0.18775 0.14915,0.29148 0.0812,0.10373 0.0333,-0.0737 -0.10653,-0.39436 -1.00828,-2.31245 -3.23766,-8.54093 -3.49167,-9.75509 l -0.0692,-0.3306 0.47249,0.0566 c 0.8135,0.0975 2.01137,0.52671 2.29126,0.82103 0.36455,0.38335 0.59635,1.04235 0.98691,2.80572 0.65875,2.9743 1.42076,6.89052 1.42076,7.3018 0,0.35688 -0.0408,0.43985 -0.29113,0.59209 -0.16012,0.0974 -0.26197,0.20621 -0.22632,0.24185 0.0865,0.0865 -0.36203,0.55819 -0.46827,0.49254 -0.0457,-0.0282 -0.083,-0.005 -0.083,0.0516 0,0.20409 0.16174,0.0919 0.79747,-0.55293 z m -0.90542,-0.0135 c -0.0599,-0.17171 -0.12583,-0.29519 -0.14662,-0.27441 -0.0208,0.0208 0.0112,0.17827 0.0711,0.34998 0.0599,0.17171 0.12584,0.29519 0.14662,0.27441 0.0208,-0.0208 -0.0112,-0.17827 -0.071,-0.34998 z m 0.28691,-0.39943 c -0.21755,-0.29425 -0.34605,-0.39425 -0.21849,-0.17003 0.0904,0.15898 0.35105,0.46151 0.39756,0.46151 0.02,0 -0.0605,-0.13117 -0.17907,-0.29148 z m -0.57839,-0.37785 c -0.0599,-0.1717 -0.12583,-0.29519 -0.14661,-0.27441 -0.0208,0.0208 0.0112,0.17828 0.071,0.34998 0.0599,0.17171 0.12584,0.29519 0.14662,0.27441 0.0208,-0.0208 -0.0112,-0.17827 -0.0711,-0.34998 z m -0.57216,-11.233 c 0,-0.0269 -0.28135,-1.39318 -0.62523,-3.03624 -1.36573,-6.52555 -2.02203,-9.5029 -2.12148,-9.62427 -0.12534,-0.15294 -0.41947,-0.11337 -2.11127,0.284 -1.67177,0.39267 -2.81808,0.75146 -2.87503,0.89988 -0.0263,0.0685 0.14549,0.68945 0.38171,1.37994 0.57956,1.6941 2.9403,8.1426 3.06892,8.38292 0.16064,0.30016 2.0114,1.11315 3.65084,1.60372 0.5506,0.16475 0.63154,0.17886 0.63154,0.11005 z m -5.63448,-2.45301 c 3.9e-4,-0.0401 -0.70533,-2.00757 -1.56835,-4.37219 -1.09538,-3.00125 -1.61218,-4.29931 -1.7117,-4.29931 -0.31842,0 -4.08768,1.76725 -4.63924,2.17516 -0.18958,0.1402 -0.18484,0.15356 0.19431,0.54753 1.23958,1.288 4.39467,3.8683 6.35954,5.20095 1.17518,0.79706 1.3638,0.90037 1.36544,0.74786 z"
       id="path225"
       inkscape:connector-curvature="0"
       transform="scale(0.26458333)" />
    <path
       style="fill:#000000;stroke-width:0.09715966"
       d=""
       id="path227"
       inkscape:connector-curvature="0"
       transform="scale(0.26458333)" />
    <path
       style="fill:#000000;stroke-width:0.09715966"
       d="m 335.46403,153.24942 c -0.0955,-0.61882 -0.15551,-1.14319 -0.13344,-1.16526 0.0221,-0.0221 0.13722,0.44719 0.25589,1.04281 0.11867,0.59561 0.17872,1.11998 0.13344,1.16526 -0.0453,0.0453 -0.16043,-0.42398 -0.25589,-1.04281 z"
       id="path229"
       inkscape:connector-curvature="0"
       transform="scale(0.26458333)" />
    <path
       style="fill:#ff0000;stroke:#000000;stroke-width:0.26458332px;stroke-linecap:butt;stroke-linejoin:miter;stroke-opacity:1"
       d="m 83.900819,15.65401 c 1.017793,-1.548322 2.346176,-2.164876 3.638555,-2.889441 2.86278,2.473495 4.937328,5.305277 1.605245,10.594618 -1.462557,-0.363307 -2.925113,-1.029594 -4.38767,-2.247343"
       id="path241"
       inkscape:connector-curvature="0"
       sodipodi:nodetypes="cccc" />
    <path
       style="fill:none;stroke:#000000;stroke-width:0.26458332px;stroke-linecap:butt;stroke-linejoin:miter;stroke-opacity:1"
       d="m 87.539374,12.764569 c 1.681854,3.531539 1.910969,7.063079 1.605243,10.594618"
       id="path243"
       inkscape:connector-curvature="0"
       sodipodi:nodetypes="cc" />
    <path
       style="fill:#ffff00;stroke-width:0.06666667"
       d="m 335.89179,87.475526 c -2.93418,-0.872803 -4.99824,-1.678034 -7.33334,-2.860886 -2.43997,-1.235978 -5.03941,-2.92648 -7.25196,-4.716204 l -0.61863,-0.500407 -0.16132,0.151548 -0.16131,0.151548 -0.0355,-0.158438 c -0.0195,-0.08714 -0.48733,-3.053438 -1.03962,-6.591771 -0.55229,-3.538334 -1.25786,-8.052186 -1.56793,-10.030782 -0.31007,-1.978597 -0.56377,-3.62314 -0.56377,-3.65454 0,-0.0314 0.0832,0.0021 0.18488,0.07455 l 0.18488,0.131645 0.49653,-0.709496 c 1.67276,-2.390206 3.92873,-4.530054 6.70435,-6.359264 1.76033,-1.160106 5.79542,-3.446063 5.89937,-3.342111 0.0932,0.09322 0.75796,1.593523 1.30086,2.936027 3.46386,8.565591 5.01802,17.498661 4.87499,28.020633 -0.0481,3.541492 -0.26585,7.537272 -0.41252,7.571352 -0.0367,0.0085 -0.26167,-0.04251 -0.5,-0.113408 z"
       id="path245"
       inkscape:connector-curvature="0"
       transform="scale(0.26458333)" />
    <path
       style="fill:#ff0000;stroke-width:0.06666667"
       d="m 337.65386,85.53936 c 0.0979,-1.238954 0.17384,-3.149368 0.21322,-5.366667 0.18503,-10.417268 -1.4554,-19.881555 -4.94156,-28.509947 -0.27635,-0.683959 -0.48814,-1.257872 -0.47065,-1.27536 0.0585,-0.05855 3.47057,3.407868 4.20832,4.275419 3.64287,4.283769 5.48801,8.142639 6.06893,12.692353 0.13337,1.044558 0.15036,3.386484 0.0328,4.517535 -0.35153,3.381273 -1.42347,6.905388 -3.25967,10.716477 -0.52234,1.084134 -1.70274,3.291277 -1.82736,3.416856 -0.0438,0.04412 -0.0519,-0.113696 -0.024,-0.466666 z"
       id="path247"
       inkscape:connector-curvature="0"
       transform="scale(0.26458333)" />
    <path
       style="fill:#ff0000;stroke-width:0.06666667"
       d="m 336.19179,87.538934 c -0.0367,-0.01278 -0.56167,-0.176494 -1.16667,-0.363813 -4.9707,-1.539018 -9.25372,-3.794599 -13.37601,-7.044251 l -0.97281,-0.766874 -0.15892,0.149302 c -0.0874,0.08212 -0.15893,0.126142 -0.15893,0.09783 0,-0.02831 -0.25406,-1.661038 -0.56459,-3.628287 -1.2078,-7.651588 -2.56874,-16.421952 -2.56874,-16.553788 0,-0.129754 0.01,-0.132002 0.15605,-0.03612 0.15361,0.100652 0.16307,0.09236 0.6068,-0.531894 2.02134,-2.84369 4.4462,-5.042623 7.87048,-7.137178 1.77247,-1.084176 4.5193,-2.61784 4.68863,-2.61784 0.10422,0 0.37869,0.560945 1.00029,2.04432 2.89146,6.900181 4.4455,13.574016 5.0504,21.689014 0.21672,2.907359 0.19497,9.863998 -0.0409,13.066666 -0.12412,1.685576 -0.13061,1.714636 -0.36513,1.632908 z"
       id="path249"
       inkscape:connector-curvature="0"
       transform="scale(0.26458333)" />
    <path
       style="fill:#ffff00;stroke-width:0.06666667"
       d="m 337.65238,85.506026 c 0.023,-0.311666 0.0701,-1.151666 0.10464,-1.866666 0.59204,-12.253694 -1.03991,-22.780613 -5.034,-32.471755 -0.16828,-0.40832 -0.28887,-0.759494 -0.26798,-0.780386 0.0544,-0.05444 3.36109,3.285142 4.0782,4.118807 1.38154,1.606094 2.74279,3.498152 3.57328,4.966667 4.19733,7.42193 3.61602,15.55198 -1.82235,25.486948 -0.29496,0.538845 -0.56719,1.009719 -0.60495,1.046385 -0.0471,0.04567 -0.0555,-0.111778 -0.0268,-0.5 z"
       id="path251"
       inkscape:connector-curvature="0"
       transform="scale(0.26458333)" />
    <path
       style="fill:#000000;stroke:#000000;stroke-width:0.26458332px;stroke-linecap:butt;stroke-linejoin:miter;stroke-opacity:1"
       d="M 34.973215,25.155572 23.722181,38.370361 h 3.085812 l 8.633018,-13.044049"
       id="path253"
       inkscape:connector-curvature="0" />
    <path
       style="fill:none;stroke:#000000;stroke-width:0.26458332px;stroke-linecap:butt;stroke-linejoin:miter;stroke-opacity:1"
       d="m 53.89478,24.59305 -13.737605,21.835572 -3.913955,0.313119 2.896325,-8.532421 -4.16633,-13.053748 2.365912,0.529092 3.444279,10.411119 12.955638,-11.672709"
       id="path266"
       inkscape:connector-curvature="0" />
    <path
       style="fill:#000000;stroke-width:0.295858"
       d="m 143.25307,160.20321 5.34421,-15.79687 -7.43347,-23.30248 c -4.0884,-12.81637 -7.38959,-23.533822 -7.33596,-23.816569 0.13822,-0.728751 1.95994,-0.78646 4.62864,-0.146628 l 2.16938,0.520116 6.57274,19.822481 c 3.61501,10.90237 6.69944,19.7811 6.85429,19.73051 0.15486,-0.0506 10.72402,-9.50325 23.48703,-21.00592 12.76301,-11.50266 23.31405,-20.958314 23.44675,-21.012554 0.13269,-0.05424 0.24126,0.02822 0.24126,0.183244 0,0.327948 -49.28368,78.74614 -49.8011,79.24148 -0.19258,0.18437 -2.51785,0.48853 -5.22848,0.68393 -2.68491,0.19355 -5.64842,0.42936 -6.58558,0.52402 l -1.70392,0.17211 z"
       id="path268"
       inkscape:connector-curvature="0"
       transform="scale(0.26458333)" />
    <path
       style="fill:none;stroke:#000000;stroke-width:0.26458332px;stroke-linecap:butt;stroke-linejoin:miter;stroke-opacity:1"
       d="m 37.495686,49.40323 -0.626234,1.252466 c 5.716936,0.03704 22.363445,0.18681 34.990753,-0.782791 2.161389,-2.517102 4.263993,-5.057717 5.401257,-7.984469 0.418085,-3.026792 0.976502,-6.053584 0.391396,-9.080376 l -3.131164,-0.626231"
       id="path270"
       inkscape:connector-curvature="0"
       sodipodi:nodetypes="cccccc" />
    <path
       style="fill:none;stroke:#000000;stroke-width:0.26458332px;stroke-linecap:butt;stroke-linejoin:miter;stroke-opacity:1"
       d="m 74.521694,32.181829 -0.861068,2.270093 1.800418,-0.234836 c 1.727909,2.270093 0.379077,4.540186 0.234836,6.810279 -0.726499,2.741528 -2.195928,5.164658 -4.383627,7.279958 L 37.730522,47.681088 37.495686,49.40323"
       id="path272"
       inkscape:connector-curvature="0"
       sodipodi:nodetypes="ccccccc" />
    <ellipse
       style="fill:#000000;stroke-width:0.26458332"
       id="path276"
       cx="37.613102"
       cy="48.54216"
       rx="0.117418"
       ry="0.86107099" />
    <ellipse
       style="fill:#000000;stroke-width:0.26458332"
       id="path280"
       cx="39.648361"
       cy="49.090111"
       rx="1.2133256"
       ry="0.54795372" />
    <path
       style="fill:#4d4d4d;stroke-width:0.295858"
       d="m 143.16767,190.80771 -2.73482,-0.12175 1.02845,-2.04223 c 0.78588,-1.56055 1.09888,-2.65697 1.32707,-4.64868 0.16424,-1.43356 0.29972,-2.72697 0.30105,-2.87426 0.002,-0.26099 3.83805,-0.21755 36.83675,0.4172 7.97337,0.15337 25.81361,0.48695 39.64497,0.74128 13.83136,0.25433 30.73964,0.58174 37.57396,0.72758 l 12.42604,0.26517 2.67404,-2.71687 c 4.52163,-4.59405 8.12329,-9.75121 10.87338,-15.56947 1.64231,-3.47456 3.76027,-9.64651 3.76027,-10.9578 0,-0.47522 0.48061,-3.30045 1.06803,-6.27829 1.72864,-8.76318 1.44046,-12.81798 -1.22559,-17.2443 -0.58665,-0.97398 -1.093,-1.79724 -1.12523,-1.82947 -0.0322,-0.0322 -1.38255,0.12633 -3.00072,0.35234 -1.61817,0.22601 -2.98633,0.36672 -3.04035,0.3127 -0.12273,-0.12273 2.26635,-6.45854 2.53877,-6.73278 0.10961,-0.11034 2.59114,0.28906 5.5145,0.88757 l 5.3152,1.08821 0.24657,1.0355 c 0.13562,0.56953 0.32443,3.7217 0.4196,7.00484 0.193,6.65855 -0.0592,10.22565 -1.39774,19.77031 l -0.87132,6.21301 -1.89962,3.84616 c -2.23485,4.52485 -4.8581,8.72302 -8.40278,13.4475 -4.11255,5.48137 -9.54183,11.84413 -10.22795,11.98649 -2.83524,0.58828 -33.5653,1.9899 -55.36107,2.52507 -12.38506,0.3041 -67.53194,0.60553 -72.26146,0.39497 z m 10.05682,-3.78232 c 1.81727,-0.86235 1.80799,-2.11529 -0.0224,-3.02408 -1.58728,-0.78809 -5.45087,-0.74966 -6.85615,0.0682 -1.15405,0.67164 -1.51449,1.85325 -0.75707,2.48185 1.51166,1.25457 5.47256,1.50047 7.63561,0.47403 z"
       id="path282"
       inkscape:connector-curvature="0"
       transform="scale(0.26458333)" />
    <path
       style="fill:none;stroke:#000000;stroke-width:0.26458332px;stroke-linecap:butt;stroke-linejoin:miter;stroke-opacity:1"
       d="m 15.345661,56.251046 h 11.453646 v 1.779206 l -4.67042,-0.3336 0.444802,7.005627 h -8.451233"
       id="path164"
       inkscape:connector-curvature="0" />
    <path
       style="fill:none;stroke:#000000;stroke-width:0.26458332px;stroke-linecap:butt;stroke-linejoin:miter;stroke-opacity:1"
       d="m 14.122456,64.702279 v 0 l -0.222401,-2.446409 6.894427,1.000802 -1.112004,-5.337619 -4.559218,0.778402 0.222401,-2.446409"
       id="path166"
       inkscape:connector-curvature="0" />
    <path
       style="fill:none;stroke:#000000;stroke-width:0.26458332px;stroke-linecap:butt;stroke-linejoin:miter;stroke-opacity:1"
       d="m 26.799307,56.251046 v 0"
       id="path168"
       inkscape:connector-curvature="0" />
    <path
       style="fill:none;stroke:#000000;stroke-width:0.26458332px;stroke-linecap:butt;stroke-linejoin:miter;stroke-opacity:1"
       d="m 30.580121,56.584648 h 2.446409 l 2.112809,4.114417 2.112809,-4.114417 h 2.001607 l -3.224813,5.56002 -0.111199,2.891214 h -1.668008 l -0.111201,-3.558416 z"
       id="path170"
       inkscape:connector-curvature="0" />
    <path
       style="fill:none;stroke:#000000;stroke-width:0.26458332px;stroke-linecap:butt;stroke-linejoin:miter;stroke-opacity:1"
       d="m 42.700969,56.807049 9.118436,-0.222401 -1.000805,8.562433 -9.229635,-0.3336 z"
       id="path172"
       inkscape:connector-curvature="0" />
    <path
       style="fill:none;stroke:#000000;stroke-width:0.26458332px;stroke-linecap:butt;stroke-linejoin:miter;stroke-opacity:1"
       d="m 44.591377,58.808656 -0.778404,4.781619 5.22642,-0.111202 0.889603,-5.22642 z"
       id="path174"
       inkscape:connector-curvature="0" />
    <path
       style="fill:none;stroke:#000000;stroke-width:0.26458332px;stroke-linecap:butt;stroke-linejoin:miter;stroke-opacity:1"
       d="m 54.710615,55.361442 -0.889603,9.89684 h 2.224011 v -3.558415 h 2.668809 c 0,0 1.890408,3.892015 1.556806,3.447214 -0.333603,-0.444802 1.779206,-0.3336 1.779206,-0.3336 -0.46903,-1.885956 -0.689524,-3.865112 -3.447213,-4.892821 l 2.780011,-2.668809 -2.001607,-1.445607 v 0 c -2.11627,-0.455783 -3.116289,-0.298005 -4.67042,-0.444802 z"
       id="path176"
       inkscape:connector-curvature="0"
       sodipodi:nodetypes="cccccscccccc" />
    <path
       style="fill:none;stroke:#000000;stroke-width:0.26458332px;stroke-linecap:butt;stroke-linejoin:miter;stroke-opacity:1"
       d="m 55.933821,57.251851 c 1.384138,-1.050963 4.332643,3.241213 -0.222401,2.224008"
       id="path178"
       inkscape:connector-curvature="0"
       sodipodi:nodetypes="cc" />
    <path
       style="fill:none;stroke:#000000;stroke-width:0.26458332px;stroke-linecap:butt;stroke-linejoin:miter;stroke-opacity:1"
       d="m 55.933821,57.251851 c 0.03706,0.03706 0.148267,0.07413 0.111202,0.111199 -0.03707,0.03707 -0.121484,-0.162603 -0.111202,-0.111199 0.04597,0.229878 0.157998,0.44179 0.222401,0.667202 0.01019,0.03564 0,0.07413 0,0.111199 0,0.148267 0,0.296535 0,0.444802 0,0.148267 0,0.296534 0,0.444801 0,0.03707 0,0.07413 0,0.111202 0,0.03707 0.03707,0.111199 0,0.111199 -0.03707,0 0,-0.148267 0,-0.111199 0,0.07413 0,0.148267 0,0.222401 0,0.03706 0.02622,0.08499 0,0.111199 -0.02622,0.02622 -0.07413,0 -0.111199,0 -0.03707,0 -0.111202,0.03707 -0.111202,0 0,-0.03706 0.144354,-0.01659 0.111202,0 -0.104842,0.05242 -0.222404,0.07413 -0.333603,0.111202"
       id="path180"
       inkscape:connector-curvature="0" />
    <path
       style="opacity:0.16000001;fill:#ffffff;stroke:#000000;stroke-width:0.26458332px;stroke-linecap:butt;stroke-linejoin:miter;stroke-opacity:1"
       d="M 7.4334774,4.6165574 100.21429,7.920325 106.54651,74.546306 10.461931,75.372247 Z"
       id="path263"
       inkscape:connector-curvature="0" />
  </g>
</svg>
